<svg xmlns="http://www.w3.org/2000/svg" xmlns:xlink="http://www.w3.org/1999/xlink" version="1" width="24" height="24"><defs><linearGradient id="b"><stop offset="0" stop-color="#b21c3d"/><stop offset="1" stop-color="#e29d18"/></linearGradient><linearGradient id="c"><stop offset="0" stop-color="#b29362"/><stop offset="1" stop-color="#fcfcfc"/></linearGradient><linearGradient id="d"><stop offset="0" stop-opacity=".573"/><stop offset="1" stop-opacity="0"/></linearGradient><linearGradient id="e"><stop offset="0" stop-color="#ea4a30"/><stop offset="1" stop-color="#b9411c"/></linearGradient><linearGradient id="a"><stop offset="0" stop-color="#fff"/><stop offset="1" stop-color="#fff" stop-opacity="0"/></linearGradient><linearGradient x2="1" id="f" gradientUnits="objectBoundingBox"><stop offset="0" stop-color="#ff8700"/><stop offset="1" stop-color="#ffff8d" stop-opacity="0"/></linearGradient><linearGradient xlink:href="#a" id="h" gradientUnits="userSpaceOnUse" gradientTransform="matrix(.25054 0 0 .19331 5.507 34.71)" x1="25.748" y1="33.934" x2="25.748" y2="38.996"/><linearGradient xlink:href="#a" id="g" gradientUnits="userSpaceOnUse" gradientTransform="matrix(.41889 0 0 .4208 -.023 18.897)" x1="20.007" y1="12.343" x2="21.708" y2="45.533"/></defs><g font-size="12" fill-rule="evenodd"><path d="M11.973 1.518c-1.194.018-2.387.182-2.38.476V8.5h-6.7c-.603.001-.597 5.085 0 5h6.7v3.368c-1.88-.073-3.885-.17-3.817-.014.104.213 4.822 5.625 6.202 5.646 1.26-.01 6.111-5.346 6.206-5.646.052-.184-1.767-.099-3.684-.015V13.5h6.561c.603 0 .603-5 0-5h-6.56V1.923c0-.294-1.335-.422-2.528-.405z" fill="#6daf30" stroke="#3a5d19"/><path d="M13.945 11.697c-.853-.004-.952.507-.93 1.448l-.03 4.637c-.02 1.97-1.745 3.308-2.439 3.357.247.329.915.708 1.423.956 1.352-.202 4.582-3.496 5.19-4.41A14.26 14.26 0 0 1 14 17.86v-4.762l6.857-.006c.108-.401.227-.903.15-1.363z" opacity=".203" fill="#261e2e"/><path d="M11.086 32.793s-.104-5.147.028-5.697c.493-.591 2.753-.267 2.753-.267l.019-.711c.007-.29-3.34-.258-3.83.144l.002 6.784-6.944-.02c-.109.363-.255.649-.178 1.066l6.872-.02c.853-.001 1.298-.436 1.278-1.28z" fill="url(#g)" transform="translate(0 -24)"/></g><path d="M6.931 41.315c.641-.076 4.219.185 5.28.176.967-.01 4.441-.215 4.837-.222-.715.295-3.264.605-4.535.77-1.23-.173-5.55-.566-5.582-.724z" fill="url(#h)" fill-rule="evenodd" transform="translate(0 -24)"/></svg>