<svg xmlns="http://www.w3.org/2000/svg" xmlns:xlink="http://www.w3.org/1999/xlink" version="1" width="24" height="24"><defs><linearGradient id="b"><stop offset="0" stop-color="#b21c3d"/><stop offset="1" stop-color="#e29d18"/></linearGradient><linearGradient id="c"><stop offset="0" stop-color="#b29362"/><stop offset="1" stop-color="#fcfcfc"/></linearGradient><linearGradient id="d"><stop offset="0" stop-opacity=".573"/><stop offset="1" stop-opacity="0"/></linearGradient><linearGradient id="e"><stop offset="0" stop-color="#ea4a30"/><stop offset="1" stop-color="#b9411c"/></linearGradient><linearGradient id="a"><stop offset="0" stop-color="#fff"/><stop offset="1" stop-color="#fff" stop-opacity="0"/></linearGradient><linearGradient x2="1" id="f" gradientUnits="objectBoundingBox"><stop offset="0" stop-color="#ff8700"/><stop offset="1" stop-color="#ffff8d" stop-opacity="0"/></linearGradient><linearGradient xlink:href="#a" id="g" gradientUnits="userSpaceOnUse" gradientTransform="matrix(.79866 0 0 .71468 -.395 25.779)" x1="11.001" y1="2.298" x2="14.338" y2="21.257"/><linearGradient xlink:href="#a" id="h" gradientUnits="userSpaceOnUse" gradientTransform="matrix(.41839 0 0 -.28906 -2.58 38.69)" x1="32.196" y1="45.898" x2="38.574" y2="28.927"/></defs><g fill-rule="evenodd"><path d="M12.03 22.498c-1.194-.017-2.537-.181-2.53-.475v-6.506H2.95c-.603-.001-.597-5.085 0-5H9.5V7.148c-1.88.074-3.735.17-3.667.015.104-.214 4.822-5.625 6.202-5.646 1.26.01 6.111 5.346 6.206 5.646.052.184-1.767.099-3.684.015v3.339h6.561c.603 0 .603 5 0 5h-6.56v6.576c0 .294-1.335.423-2.528.405z" font-size="12" fill="#6daf30" stroke="#3a5d19"/><path d="M11.014 34.85l-.003-2.89-.978-1.294-.03 4.342-6.837.003a1.649 1.649 0 0 0-.066.944l6.75-.017c1.008-.014 1.167-.22 1.164-1.089z" font-size="12" fill="url(#g)" transform="translate(0 -24)"/><path d="M12.809 15.07s.046 4.404-.059 5.594c-.48.561-2.786.282-2.786.282l.041.771c.513.306 3.997.305 3.999.024l.046-6.679 6.756-.005c.107-.345.223-.777.148-1.173l-6.897-.028c-.833-.004-1.267.414-1.248 1.214z" font-size="12" opacity=".203" fill="#261e2e"/><path d="M9.859 27.545c-.651.56-2.498 2.654-2.971 3.145 1.485-.606 3.275-3.594 5.047-3.58 1.616.014 2.035.646 2.612.847-.531-.513-1.98-1.93-2.504-1.928-.54.034-1.657 1.09-2.184 1.516z" fill="url(#h)" transform="translate(0 -24)"/></g></svg>