<svg xmlns="http://www.w3.org/2000/svg" xmlns:xlink="http://www.w3.org/1999/xlink" height="24" width="24"><defs><linearGradient xlink:href="#a" id="f" gradientUnits="userSpaceOnUse" gradientTransform="matrix(.89947 -.132 .11504 .65078 -36.226 26.44)" spreadMethod="reflect" x1="83.538" y1="41.581" x2="77.6" y2="33.573"/><linearGradient id="a"><stop offset="0" stop-color="#b21c3d"/><stop offset="1" stop-color="#e29d18"/></linearGradient><linearGradient id="c"><stop offset="0" stop-opacity=".573"/><stop offset="1" stop-opacity="0"/></linearGradient><linearGradient id="b"><stop offset="0" stop-color="#b29362"/><stop offset="1" stop-color="#fcfcfc"/></linearGradient><linearGradient y2="65.782" x2="32.81" y1="50.887" x1="24.969" gradientTransform="matrix(.66578 -.11279 .06237 .26717 -6.346 6.61)" gradientUnits="userSpaceOnUse" id="e" xlink:href="#b"/><linearGradient xlink:href="#c" id="d" gradientUnits="userSpaceOnUse" gradientTransform="matrix(.77821 .26438 -.10382 .41734 8.739 -21.671)" x1="18.753" y1="89.392" x2="26.26" y2="95.193"/></defs><path d="M13.51 1.562l9.63 12.574-13.021 4.193c0 .615-1.18 2.183-1.18 2.799L.802 8.673c-.47-1.597-.475-3.225.512-4.102z" fill="#8793d9" fill-rule="evenodd" stroke="#131661"/><path d="M22.718 18.616L9.817 22.517c.438.573.95 1.373 1.37 1.604.378.247.553.687 1.145.647l3.682-.653c.506.49 1.182.518 1.947.885l1.58-.139.182-1.573 4.14-.385c-.292-.115-.553-.179-.828-.262l2.755-.432c-.504-.55-2.94-2.782-3.072-3.593z" opacity=".5" fill="url(#d)"/><path d="M23.045 14.195l-12.754 3.898c-.516.325-.818.753-1.033 1.323-.142.479-.148 1.314-.047 1.791.09.43.249.81.516 1.07l12.584-3.82c-.37-.455-.41-.892-.413-1.396-.033-.468-.032-1.023.24-1.69.107-.456.47-.86.907-1.176z" fill="url(#e)" fill-rule="evenodd" stroke="#131661" stroke-linejoin="round"/><path d="M5.9 6.579l6.182-1.635M8.397 9.303l4.711-1.456" fill="none" stroke="#120d68" stroke-width="2" stroke-linecap="round"/><path d="M27.744 36.678l3.276 1.56 2.158 1.902 1.314 2.591 1.788 1.775 2.23 1.438 1.022-3.66 5.792.82-3.094-3.652-1.377-2.216-2.173-1.652L36.75 34l-9.007 2.678z" fill="url(#f)" transform="matrix(.42405 .00274 -.00698 .46332 2.362 1.43)"/><path d="M28.005 36.993c2.665 1.051 4.49 2.44 5.374 4.18.897 2.377 2.108 3.34 5.482 5.202l1.078-3.792 6.754.806c-1.59-1.182-4.164-2.502-4.673-4.668-.786-1.913-2.636-3.22-5.014-4.41" fill="none" stroke="#630e0e" stroke-width="2.82" stroke-linecap="round" transform="matrix(.42405 .00274 -.00698 .46332 2.362 1.43)"/><path d="M2.463 5.347l10.653-2.711 8.313 10.966-11.096 3.402-7.87-11.657z" fill="none" stroke="#dce2fb" stroke-opacity=".631"/></svg>