<svg xmlns="http://www.w3.org/2000/svg" xmlns:xlink="http://www.w3.org/1999/xlink" width="24" height="24"><defs><linearGradient id="b"><stop offset="0" stop-color="#fff"/><stop offset="1" stop-color="#fff" stop-opacity="0"/></linearGradient><linearGradient id="c"><stop offset="0" stop-color="#62ba5f"/><stop offset="1" stop-color="#4c4c4c"/></linearGradient><linearGradient id="a"><stop offset="0" stop-color="#fff300"/><stop offset="1" stop-color="#997f00"/></linearGradient><linearGradient xlink:href="#a" id="d" x1="-8.36" y1="8.671" x2="-32.401" y2="31.373" gradientTransform="matrix(-.40028 .17136 .07211 .35708 -1.977 31.367)" gradientUnits="userSpaceOnUse"/><linearGradient xlink:href="#b" id="f" gradientUnits="userSpaceOnUse" gradientTransform="matrix(.50514 .30535 -.15035 .22878 16.8 15.737)" x1="9.289" y1="41.466" x2="23.251" y2="55.043"/><linearGradient xlink:href="#b" id="g" gradientUnits="userSpaceOnUse" gradientTransform="matrix(-.40088 .2637 .11857 .30937 8.677 12.734)" x1="9.289" y1="41.466" x2="23.251" y2="55.043"/><linearGradient xlink:href="#c" id="e" gradientUnits="userSpaceOnUse" gradientTransform="matrix(-.06158 .25096 -.5831 -.17896 -6.95 31.961)" x1="-34.063" y1="-37.436" x2="-19.426" y2="-46.449"/></defs><g transform="translate(0 -24)" fill-rule="evenodd"><ellipse transform="matrix(-.10988 .99394 .95949 .28176 0 0)" cx="39.13" cy="5.865" rx=".687" ry=".626" font-size="12" fill="#261933"/><ellipse transform="matrix(-.17474 .98461 .97893 .20418 0 0)" cx="41.758" cy="15.108" rx=".595" ry=".569" font-size="12" fill="#261933"/><ellipse transform="matrix(-.17474 .98461 .97893 .20418 0 0)" cx="40.928" cy="13.054" rx=".661" ry=".632" font-size="12" fill="#261933"/><ellipse transform="matrix(-.17474 .98461 .97893 .20418 0 0)" cx="41.815" cy="8.81" rx=".595" ry=".569" font-size="12" fill="#261933"/><ellipse transform="matrix(-.17474 .98461 .97893 .20418 0 0)" cx="44.189" cy="9.234" rx=".595" ry=".569" font-size="12" fill="#261933"/><ellipse transform="matrix(-.1616 .98686 .97539 .22049 0 0)" cx="42.559" cy="10.364" rx=".713" ry=".633" font-size="12" fill="#261933"/><ellipse transform="matrix(-.17474 .98461 .97893 .20418 0 0)" cx="40.081" cy="10.97" rx=".595" ry=".569" font-size="12" fill="#261933"/><ellipse transform="matrix(-.17474 .98461 .97893 .20418 0 0)" cx="42.845" cy="12.883" rx=".595" ry=".569" font-size="12" fill="#261933"/><path d="M12.6 33.428c.598 1.33-2.206 6.034-4.487 7.533-.518.338-.793-1.367-1.44-1.69-.743-.37-2.299.517-3.071.192-.667-.28-.78-1.623-1.442-1.953-.728-.364-1.916.007-1.606-.383 3.673-4.624 2.323-5.856 3.939-6.21 2.465-.541 7.304.721 8.108 2.51z" font-size="12" fill="url(#d)" stroke="#53530e"/><path d="M10.64 34.578c-.272.152-2.502 3.425-2.832 4.122-.127.27 1.175-.907 1.51-1.356.576-.77 1.504-2.867 1.323-2.766zm-5.844-1.161c-.273.152-1.924 2.814-2.254 3.511-.127.27 1.026-.796 1.361-1.245.576-.77 1.074-2.367.893-2.266zm1.975.483c-.273.153-2.437 3.216-2.767 3.913-.128.269 1.187-.905 1.522-1.354.575-.77 1.426-2.66 1.245-2.558zm1.879.374c-.272.152-2.483 3.23-2.813 3.928-.127.269 1.248-1.083 1.583-1.532.576-.77 1.412-2.497 1.23-2.396z" opacity=".5" fill="#261933"/><path d="M5.5 30.461c-1.245.12-2.346.54-2.265 1.636.612 1.565 3.212 1.316 4.909 1.48 1.326.13 3.817.324 4.632-.178 2.972.699 6.165 1.42 9.117 1.413.842-.002 1.71-.782 1.743-1.964l-.001-.015c-.041-1.162-1.345-1.922-2.147-1.984-3.074-.239-6.36-.004-9.325.378-1.042-.587-2.796-.594-4.226-.719-.661-.064-1.584-.13-2.436-.047z" fill="url(#e)" stroke="#105215"/><path d="M12.826 31.697c.028-.086 2.87-.65 4.43-.466 1.446-.194 2.848-.25 4.876.16-.563 1.124-2.758 1.062-4.292.882-1.502-.177-5.041-.494-5.014-.576z" fill="url(#f)"/><path d="M11.937 31.763c.013-.426-3.496-.698-4.73-.805-1.171-.1-1.919-.035-3.309.292 2.22.49 3.546.309 5.285.705 1.283-.098 2.751-.085 2.754-.192z" fill="url(#g)"/></g></svg>