<svg xmlns="http://www.w3.org/2000/svg" xmlns:xlink="http://www.w3.org/1999/xlink" version="1" width="20" height="20"><defs><linearGradient id="a"><stop offset="0"/><stop offset="1" stop-opacity="0"/></linearGradient><radialGradient xlink:href="#a" id="f" cx="25.375" cy="47.35" fx="25.375" fy="47.35" r="17.125" gradientTransform="matrix(1 0 0 .34307 0 28.495)" gradientUnits="userSpaceOnUse"/><linearGradient id="c"><stop offset="0" stop-color="#f5ebda" stop-opacity=".941"/><stop offset="1" stop-color="#f5f5f5" stop-opacity=".98"/></linearGradient><radialGradient id="b" cx="216.704" cy="393.795" r="296.697" gradientUnits="userSpaceOnUse"><stop offset="0" stop-color="#fef4a5" stop-opacity=".961"/><stop offset="1" stop-color="#edd400"/></radialGradient><radialGradient xlink:href="#b" id="d" gradientUnits="userSpaceOnUse" cx="216.546" cy="433.352" r="296.697" gradientTransform="matrix(.02664 -.0001 .0001 .0268 4.619 -.476)" fx="216.546" fy="433.352"/><linearGradient xlink:href="#c" id="e" x1="17.533" y1="30.969" x2="16.678" y2="8.416" gradientUnits="userSpaceOnUse" gradientTransform="matrix(.6455 0 0 .6512 -.355 -1.082)"/></defs><path d="M1.502 15.075c-.132-.848 5.854-12.702 6.561-13.24.6-.456 3.498-.438 4.2 0 .652.406 6.412 12.343 6.233 13.258-.18.916-1.2 2.451-2.041 3.05-.61.433-12.078.517-12.754 0-.858-.658-2.066-2.22-2.199-3.068z" fill="url(#d)" stroke="#2e3436"/><path d="M2.75 14.747c.082-.636 5.4-11.117 5.902-11.745.28-.352 2.72-.337 3.027.06.506.655 5.575 11.352 5.569 11.81-.007.455-1.077 1.833-1.574 2.13-.692.413-10.726.252-11.343-.058-.519-.26-1.635-1.772-1.58-2.197z" opacity=".7" fill="none" stroke="url(#e)" stroke-width="1.5"/><path d="M8.413 7.755c-.253-.316-.853-.016-1.107.2-.254.217-.668.783-.416 1.1l2.026 2.544-2.017 1.733c-.253.217.05.836.296 1.157.247.321.667.783.92.565l2.021-1.744 1.975 2.533c.249.32.959.154 1.213-.063.253-.217.557-.917.31-1.237l-1.96-2.533 1.957-1.668c.254-.216.01-.826-.236-1.147-.247-.321-.725-.79-.98-.575l-1.972 1.668-2.03-2.533z" font-size="12" fill="#2e3436" fill-rule="evenodd"/><path style="marker:none" d="M42.5 43.375a17.125 5.875 0 1 1-34.25 0 17.125 5.875 0 1 1 34.25 0z" transform="matrix(-.51084 0 0 .12435 23.73 13.445)" opacity=".4" fill="url(#f)" display="block" overflow="visible"/></svg>