<svg xmlns="http://www.w3.org/2000/svg" xmlns:xlink="http://www.w3.org/1999/xlink" width="48" height="48" version="1"><defs><linearGradient id="a"><stop offset="0" stop-color="#146b1b"/><stop offset="1" stop-color="#fff" stop-opacity="0"/></linearGradient><linearGradient id="b"><stop offset="0" stop-color="#700"/><stop offset="1" stop-color="#fff" stop-opacity="0"/></linearGradient><linearGradient xlink:href="#b" id="c" gradientUnits="userSpaceOnUse" gradientTransform="matrix(-.24128 .68557 -.65286 -.24885 83.538 24.056)" x1="66.332" y1="23.212" x2="63.465" y2="20.963"/><linearGradient xlink:href="#a" id="d" gradientUnits="userSpaceOnUse" gradientTransform="matrix(.0544 .41754 -.4859 .12374 58.235 3.32)" x1="56.328" y1="43.377" x2="51.655" y2="39.763"/></defs><path d="M35.578 46.837H9.672c-1.683.014-2.514-1.297-2.59-2.522L9.404 10.94c.38-1.798 1.176-2.1 2.902-2.142l25.28-.077c1.242.23 2.428 1.063 2.414 2.813l-1.673 33.15c-.176 1.713-1.597 2.361-2.75 2.152z" opacity=".267" fill="#666c66" fill-rule="evenodd"/><path d="M32.97 42.964H9.36c-1.534.013-2.291-1.223-2.36-2.38l2.116-31.49c.346-1.697 1.072-1.98 2.645-2.022L34.8 7c1.131.217 2.213 1.003 2.2 2.655l-1.525 31.279c-.16 1.616-1.455 2.227-2.505 2.03z" fill="#fff" fill-rule="evenodd" stroke="#244517" stroke-width="2"/><path d="M13.55 15.721l18.5.029M12.75 28l5.397.055" fill="none" stroke="#42667e" stroke-width="2.5" stroke-linecap="round"/><g font-size="12" fill="none" stroke-linecap="round"><path transform="matrix(.4517 0 0 .61794 14.418 -5.446)" d="M31.951 25.75c-2.33 0-3.454-2.548-3.454-6.388s1.891-6.956 4.221-6.956 3.001 1.742 3.001 5.582" stroke="#4f4f4f" stroke-width="3.059"/><path transform="matrix(.4517 0 0 .61794 14.418 -5.446)" d="M28.146 22.636c-.67-1.886-.601-4.386-.048-6.292.415-2 1.614-4.365 4.429-4.79" stroke="#c2c2c2" stroke-width=".665"/></g><g font-size="12" fill="none" stroke-linecap="round"><path d="M31.951 25.75c-2.33 0-3.454-2.548-3.454-6.388s1.891-6.956 4.221-6.956 3.001 1.742 3.001 5.582" transform="matrix(.4517 0 0 .61794 3.29 -5.446)" stroke="#4f4f4f" stroke-width="3.059"/><path d="M28.146 22.636c-.67-1.886-.601-4.386-.048-6.292.415-2 1.614-4.365 4.429-4.79" transform="matrix(.4517 0 0 .61794 3.29 -5.446)" stroke="#c2c2c2" stroke-width=".665"/></g><path d="M13.15 21.721l18.5.029" fill="none" stroke="#42667e" stroke-width="2.5" stroke-linecap="round"/><g><g fill-rule="evenodd"><path d="M18.013 28.18c-.085.58 1.204 4.753 3.803 6.255 5.4 2.232 12.71 6.697 18.6 9.402 4.332-1.084 5.324-4.868 4.096-6.282-6.092-2.643-11.33-5.127-17.483-7.686-3.668-.408-4.76-1.552-9.016-1.688z" fill-opacity=".283"/><path d="M17.917 26.75l-.639 1.879c.798.9 2.474 2.87 3.958 4.237 3.26.852 12.885 5.831 19.22 9.1 4.751-.897 4.245-6.769 3.504-6.28-6.493-3.133-14.362-5.438-20.094-8.364-3.16-.594-4.417-.475-5.95-.572z"/><path d="M40.505 40.765l-2.898-1.224c1.805-1.323 2.634-2.554 2.528-5.116l3.187 1.7c.485 1.968-1.004 3.968-2.817 4.64z" fill="#be6d6d"/><path d="M39.73 34.52c.38 1.942-.865 3.672-2.41 4.85-5.16-2.768-10.044-5.324-15.235-7.161 1.302-1.29 1.68-2.006 1.272-4.205 3.475 1.915 12.858 5.214 16.374 6.515z" fill="#3ba831"/><path d="M20.487 27.73c.491 1.21.001 2.106-.479 2.562l-1.803-1.91.273-.806 2.009.154z" fill="#586f93"/><path d="M23.367 27.976c.612 1.453-.336 3.897-1.342 4.163l-2.023-1.825c.68-.6.967-1.447.421-2.628l2.944.29z" fill="#e9dbb9"/><path d="M52.533 67.966l-3.652-5.407c4.086-.21 6.503-1.376 8.556-5.893l3.711 6.554c-.92 3.932-5.08 5.665-8.615 4.746z" transform="matrix(.4535 -.3017 .22947 .43008 1.085 27.383)" fill="url(#c)"/><path d="M43.16 36.636l-2.685-1.356-.23 1.157 2.54 1.393.376-1.194z" fill="#fff"/><path d="M52.228 30.74c.475 2.43-1.252 5.114-3.183 6.587-7.39-3.93-10.566-5.616-17.795-8.721 3.122-1.2 3.75-3.874 2.888-6.106 3.604 2.122 13.695 6.614 18.09 8.24z" transform="matrix(.8 0 0 .8 -2 9.529)" fill="url(#d)"/><path d="M24.312 28.892c.194.526.156.745.005 1.31 4.323 2.015 10.189 2.944 15.106 5.99.156-.539-.109-.85.047-1.389-5.235-1.54-11.182-3.644-15.158-5.91z" fill="#fff"/><path d="M22.065 32.15c.581-.315.96-.853 1.264-1.578-1.206-.123-1.975-.613-2.716-1.366-.077.435-.343.8-.633 1.097.53.465 1.926 1.96 2.085 1.848z" fill="#9c7850"/></g></g></svg>