<svg xmlns="http://www.w3.org/2000/svg" xmlns:xlink="http://www.w3.org/1999/xlink" width="20" height="20" version="1"><defs><linearGradient id="a"><stop offset="0" stop-color="#146b1b"/><stop offset="1" stop-color="#fff" stop-opacity="0"/></linearGradient><linearGradient id="b"><stop offset="0" stop-color="#700"/><stop offset="1" stop-color="#fff" stop-opacity="0"/></linearGradient><linearGradient xlink:href="#b" id="c" gradientUnits="userSpaceOnUse" gradientTransform="matrix(.0203 .15933 -.14966 .03898 18.387 33.588)" x1="66.332" y1="23.212" x2="61.055" y2="17.551"/><linearGradient xlink:href="#a" id="d" gradientUnits="userSpaceOnUse" gradientTransform="matrix(.01667 .14476 -.14886 .0429 17.548 33.44)" x1="56.328" y1="43.377" x2="51.655" y2="39.763"/></defs><path d="M14.611 20.02H3.633c-.713.005-1.065-.534-1.097-1.038L3.52 5.253c.16-.74.498-.864 1.23-.881l10.712-.032c.526.095 1.029.437 1.023 1.157l-.709 13.638c-.074.704-.677.97-1.165.885z" opacity=".267" fill="#666c66" fill-rule="evenodd"/><path d="M13.506 18.485H3.501c-.65.005-.97-.51-1-.992l.897-13.12c.146-.707.454-.826 1.12-.843l9.763-.03c.48.09.938.418.933 1.106l-.646 13.033c-.068.673-.617.928-1.062.846z" fill="#fff" fill-rule="evenodd" stroke="#244517"/><path d="M5.277 7.237l7.84.013M4.938 12.226l2.287.024" fill="none" stroke="#42667e" stroke-width="1.5" stroke-linecap="round"/><g font-size="12" fill="none" stroke-linecap="round"><path d="M11.76 5.096c-.446 0-.66-.682-.66-1.71 0-1.029.361-1.863.807-1.863.446 0 .575.466.575 1.494" stroke="#4f4f4f"/><path d="M11.032 4.262c-.128-.505-.115-1.175-.01-1.685.08-.536.31-1.169.849-1.283" stroke="#c2c2c2" stroke-width=".351"/></g><g font-size="12" fill="none" stroke-linecap="round"><path d="M7.045 5.096c-.446 0-.661-.682-.661-1.71 0-1.029.361-1.863.808-1.863.446 0 .574.466.574 1.494" stroke="#4f4f4f"/><path d="M6.316 4.262c-.128-.505-.115-1.175-.009-1.685.08-.536.31-1.169.848-1.283" stroke="#c2c2c2" stroke-width=".351"/></g><path d="M5.107 9.737l7.84.013" fill="none" stroke="#42667e" stroke-width="1.5" stroke-linecap="round"/><path d="M7.168 12.373c-.036.251.51 2.06 1.611 2.71 2.289.967 5.387 2.903 7.882 4.075 1.836-.47 2.256-2.11 1.736-2.723-2.582-1.145-4.801-2.222-7.409-3.33-1.554-.177-2.016-.673-3.82-.732z" fill-opacity=".283" fill-rule="evenodd"/><path d="M7.127 11.753l-.27.814c.338.39 1.048 1.244 1.677 1.836 1.381.37 5.46 2.528 8.145 3.944 2.013-.389 1.798-2.933 1.484-2.722-2.751-1.357-6.086-2.356-8.515-3.624-1.339-.258-1.872-.206-2.52-.248z" fill-rule="evenodd"/><path d="M16.699 17.826l-1.228-.53c.765-.573 1.116-.825 1.071-1.936l1.226.58c.205.854-.3 1.596-1.069 1.886z" fill="#be6d6d" fill-rule="evenodd"/><path d="M15.748 15.12c.148.842-.242 1.31-.842 1.82-2.005-1.199-3.996-2.025-6.013-2.822.506-.559.653-.869.495-1.822 1.35.83 4.995 2.26 6.36 2.824z" fill="#3ba831" fill-rule="evenodd"/><path d="M8.216 12.177c.208.525 0 .913-.203 1.11l-.764-.827.116-.35.851.067z" fill="#586f93" fill-rule="evenodd"/><path d="M9.437 12.284c.26.63-.143 1.69-.569 1.804l-.857-.79c.288-.26.41-.628.178-1.14l1.248.126z" fill="#e9dbb9" fill-rule="evenodd"/><path d="M16.699 45.826l-1.228-.53c.765-.573 1.366-.607 1.321-1.717l1.101.236c.205.854-.425 1.72-1.194 2.011z" fill="url(#c)" fill-rule="evenodd" transform="translate(0 -28)"/><path d="M15.708 42.947c.145.842-.196 1.46-.788 1.971-2.264-1.362-3.424-1.634-5.639-2.71.957-.417 1.149-1.344.885-2.118 1.104.736 4.196 2.293 5.542 2.857z" fill="url(#d)" fill-rule="evenodd" transform="translate(0 -28)"/><path d="M8.885 14.093c.246-.137.407-.37.536-.684-.512-.053-.837-.265-1.151-.592-.033.188-.146.346-.269.475.225.202.817.85.884.801z" fill="#9c7850" fill-rule="evenodd"/></svg>