<svg xmlns="http://www.w3.org/2000/svg" xmlns:xlink="http://www.w3.org/1999/xlink" width="48" height="48"><defs><linearGradient xlink:href="#a" id="l" gradientUnits="userSpaceOnUse" gradientTransform="matrix(.70063 .09375 -.00034 1.01468 19.378 -40.977)" x1="21.925" y1="70.487" x2="15.188" y2="55.927"/><radialGradient gradientTransform="rotate(-11.46 179.703 105.66)" gradientUnits="userSpaceOnUse" id="a" fy="254.252" fx="176.258" r="206.833" cy="254.252" cx="176.258"><stop offset="0" stop-color="#1f1d88"/><stop offset=".439" stop-color="#2928b4"/><stop offset="1" stop-color="#4646f2"/></radialGradient><linearGradient y2="70.296" x2="4.233" y1="74.765" x1="5.367" gradientTransform="matrix(2.79655 .63904 0 3.94637 14.383 -260.329)" gradientUnits="userSpaceOnUse" id="m" xlink:href="#a"/><linearGradient x2="1" id="f" gradientUnits="objectBoundingBox"><stop offset="0"/><stop offset="1" stop-opacity="0"/></linearGradient><linearGradient xlink:href="#b" id="h" gradientUnits="userSpaceOnUse" gradientTransform="matrix(1.02206 .10324 -.00122 1.00332 -.912 18.335)" x1="25.321" y1="17.839" x2="20.337" y2="-15.925"/><linearGradient id="b"><stop offset="0" stop-color="#c9b92f"/><stop offset=".3" stop-color="#e4d034"/><stop offset="1" stop-color="#fbf7be"/></linearGradient><linearGradient xlink:href="#c" id="i" gradientUnits="userSpaceOnUse" gradientTransform="matrix(1.02184 .10322 -.00121 .99989 -1.005 -1.136)" x1="22.625" y1="43.003" x2="20.455" y2="3.483"/><linearGradient id="c"><stop offset="0" stop-color="#725c1a"/><stop offset="1" stop-color="#d5a509"/></linearGradient><linearGradient gradientTransform="translate(-.048 -.726)" xlink:href="#c" id="j" x1="3" y1="37.438" x2="7.359" y2="12.159" gradientUnits="userSpaceOnUse"/><linearGradient gradientTransform="translate(-.048 -.726)" xlink:href="#d" id="k" x1="9.695" y1="17.222" x2="6.818" y2="41" gradientUnits="userSpaceOnUse"/><linearGradient id="d"><stop offset="0" stop-color="#d5a509"/><stop offset="1" stop-color="#977506"/></linearGradient><radialGradient cx="176.258" cy="254.252" r="206.833" fx="176.258" fy="254.252" id="e" gradientUnits="userSpaceOnUse" gradientTransform="rotate(-11.46 179.703 105.66)"><stop offset="0" stop-color="#171563"/><stop offset=".67" stop-color="#24239d"/><stop offset="1" stop-color="#2c2cf0"/></radialGradient><linearGradient y2="48.933" x2="23.475" y1="32" x1="21.168" gradientTransform="matrix(1.02184 .10322 -.00121 .99989 -1.005 -1.136)" gradientUnits="userSpaceOnUse" id="g" xlink:href="#f"/></defs><path d="M45.822 52.483c-.748 1.568-1.533.307-3.12.536-2.023.282-31.937.276-33.88.422-3.807.697-5.336-7.326-6.134-8.406l35.658-3.848 3.635-4.008s4.658 13.447 3.841 15.304z" opacity=".6" fill="url(#g)" fill-rule="evenodd"/><path d="M33.5 3.62L4.23 6.776c-1.18.105-2.46.427-2.692 3.135L1.5 40.23c.025 4.403 1.664 4.714 3.86 4.716l32.234-3.485c7.298-2.848 8.257-17.867 8.813-23.6.468-3.02-1.031-5.565-3.937-5.148.924-4.16-1.398-5.09-4.708-4.465.4-3.522-.74-5.02-4.261-4.627z" fill="url(#h)" fill-rule="evenodd" stroke="url(#i)" stroke-linecap="round" stroke-linejoin="round"/><path d="M3.142 35.15c1.691-10.222 1.682-13.33 2.113-19 .058-3.722 1.55-4.514 3.517-4.834l28.71-3.094" fill="none" stroke="url(#j)" stroke-linecap="round" stroke-linejoin="round"/><path d="M3.34 39.887c.656-1.024 4.946-11.535 5.649-19.521.257-1.218-.181-4.01 3.282-4.399l30.06-3.24" fill="none" stroke="url(#k)" stroke-linecap="round" stroke-linejoin="round"/><path d="M28.067 22.842c2.418-1.695 4.368-2.171 5.172-2.217 2.188.009 2.753.37 3.945 1.086 1.074.845 2.02 1.808 2.338 3.023.296.54.363 1.654.275 2.358-.136.595-.33 1.402-1.23 2.897-.909 1.509-2.422 4.089-4.796 5.806l6.305-.758-.125 3.183-11.42 1.37-.032-3.195c.927-.848 4.053-3.786 4.649-4.552 1.319-1.359 1.753-2.08 2.317-2.685.4-.446.61-.982.788-1.833.172-.431.21-1.598-.134-2.253-.24-.617-.977-1.23-1.912-1.423-1.662-.043-2.728.523-5.12 1.972-.178-.75-.643-2.199-1.02-2.78z" fill="url(#l)" transform="translate(.017 -1.143)"/><text x="9.245" y="41.768" transform="matrix(.9403 -.11802 -.00032 1.06354 .017 -1.143)" font-size="39.865" font-weight="400" fill="url(#m)" font-family="Bitstream Vera Sans"><tspan x="9.245" y="41.768">e</tspan></text></svg>