<svg xmlns="http://www.w3.org/2000/svg" xmlns:xlink="http://www.w3.org/1999/xlink" height="24" width="24"><defs><linearGradient id="a"><stop offset="0" stop-color="#196d22"/><stop offset="1" stop-color="#86e86b"/></linearGradient><linearGradient id="e"><stop offset="0" stop-color="#c62224"/><stop offset="1" stop-color="#f6b5a1"/></linearGradient><linearGradient id="c"><stop offset="0" stop-color="#191b6d"/><stop offset="1" stop-color="#c4cded"/></linearGradient><linearGradient xlink:href="#a" id="b" x1="3.067" y1="24" x2="45.992" y2="24" gradientUnits="userSpaceOnUse"/><marker orient="auto" id="l" overflow="visible"><path d="M5.77 0l-8.65 5V-5l8.65 5z" transform="scale(.2)" fill="url(#b)" fill-rule="evenodd" stroke="url(#b)" stroke-width="1pt"/></marker><linearGradient xlink:href="#c" id="d" x1="3" y1="39.088" x2="26.937" y2="39.088" gradientUnits="userSpaceOnUse"/><marker orient="auto" id="h" overflow="visible"><path d="M5.77 0l-8.65 5V-5l8.65 5z" transform="scale(.2)" fill="url(#d)" fill-rule="evenodd" stroke="url(#d)" stroke-width="1pt"/></marker><linearGradient y2="15.588" x2="10.03" y1="2.995" x1="10.03" gradientUnits="userSpaceOnUse" id="f" xlink:href="#e"/><marker orient="auto" id="j" overflow="visible"><path d="M5.77 0l-8.65 5V-5l8.65 5z" transform="scale(.2)" fill="url(#f)" fill-rule="evenodd" stroke="url(#f)" stroke-width="1pt"/></marker><linearGradient xlink:href="#e" id="i" gradientUnits="userSpaceOnUse" x1="10.03" y1="10.558" x2="10.03" y2="2.995" gradientTransform="matrix(.77442 0 0 .76865 -1.774 -3.605)"/><linearGradient xlink:href="#a" id="k" gradientUnits="userSpaceOnUse" gradientTransform="matrix(0 .5951 -.5828 0 25.987 -2.61)" x1="32.406" y1="24" x2="3.151" y2="24"/><linearGradient xlink:href="#c" id="g" gradientUnits="userSpaceOnUse" gradientTransform="matrix(0 .7684 -.77417 0 48.267 -3.637)" x1="11" y1="39.088" x2="3" y2="39.088"/></defs><path d="M18.006.974v10.193" fill="none" stroke="url(#g)" stroke-width="2" stroke-linecap="square" marker-end="url(#h)"/><path d="M5.994 1.003v10.194" fill="none" stroke="url(#i)" stroke-width="2" stroke-linecap="square" marker-end="url(#j)"/><path d="M21.499 15.499L2.5 15.485" fill="none" stroke="#1c0d0d" stroke-width="3" stroke-linecap="square" stroke-opacity=".849"/><path d="M12 1v19.193" fill="none" stroke="url(#k)" stroke-width="2" stroke-linecap="square" marker-end="url(#l)"/></svg>