<svg xmlns="http://www.w3.org/2000/svg" height="24" width="24"><defs><linearGradient id="c"><stop offset="0" stop-color="#763900"/><stop offset=".8" stop-color="#763900" stop-opacity=".719"/><stop offset="1" stop-color="#763900" stop-opacity="0"/></linearGradient><linearGradient id="b"><stop offset="0" stop-color="#763900"/><stop offset="1" stop-color="#763900" stop-opacity="0"/></linearGradient><linearGradient id="a"><stop offset="0" stop-color="#fafaf2" stop-opacity=".677"/><stop offset="1" stop-color="#fafaf2" stop-opacity="0"/></linearGradient></defs><g font-size="12"><path d="M12.528 1L.022 4.263 0 6.693l4.877 6.124 5.555.096 2.77 3.084-1.009 2.06 2.8-.19-.368.975.656-.267-1.008 1.18.352-.913-1.387.674 1.95 2.23 2.154-.923.307.756-2.384 1.116L21.89 24l2.08-1.163.031-3.79-7.957-8.256 1.902-2.257V6.313L12.528 1zm-.402.7l3.881 5.628-9.294 2.646-5.492-5.22 10.905-3.053z" fill="#562900" fill-rule="evenodd"/><path d="M.34 4.53l.015 1.745 4.743 5.956 5.698.189 2.919 3.23-.909.598.064 1.163 2.622-.094.321.44-1.63.536-.049 1.351 1.112 1.32 2.48-.992.885 1.15 4.74-1.77-8.337-8.876-9.138.653L.34 4.53z" fill="#b97c00" fill-rule="evenodd"/><path d="M5.063 10.544v1.68l5.73.214v-1.915l-5.73.02z" fill="#8c4100" fill-rule="evenodd"/><path d="M11.504 4.83l2.246 2.29.928-1.246-3.086-3.258-.088 2.214z" fill="#b97c00" fill-rule="evenodd"/><path d="M17.421 8.519V6.153l-2.877 3.586 1.058 1.041 1.82-2.261zM3.904 5.456l1.014 1.378 6.654-1.846V2.82L3.904 5.456z" fill="#8c4100" fill-rule="evenodd"/><path d="M.312 4.551l12.163-3.278 4.985 4.891-2.884 3.488 8.87 9.323.011 1.982-1.21.881-5.385-.689 2.389-.904-1.428-1.755-2.536 1.103-1.127-1.244 2.51-1.152-1.15-1.226-2.687.233 1.119-1.819-3.147-3.561-5.724-.312-4.769-5.96zm11.451-1.218l-7.675 2.11 2.758 3.243 3.071.22 2.922-.8 1.602-2.083-2.678-2.69z" fill="#cda51a" fill-rule="evenodd"/><path d="M13.887 10.316l9.666 10.52" fill="none" stroke="#7d5800" stroke-width="1.037"/><path d="M16.764 21.082v1.42l5.2.983 1.432-.848.08-1.72-1.501.922-5.21-.757zM15.307 19.52v1.525l2.44-1.054.063-1.51-2.503 1.039zM12.852 16.22l.032 1.355 2.645-.199.01-1.368-2.687.212z" fill="#8c4100" fill-rule="evenodd"/><path d="M13.477 10.66l9.697 10.473" fill="none" stroke="#b97c00" stroke-width="1.037"/></g></svg>