<svg xmlns="http://www.w3.org/2000/svg" xmlns:xlink="http://www.w3.org/1999/xlink" height="24" width="24"><defs><linearGradient id="a"><stop offset="0" stop-color="#87abcf"/><stop offset=".67" stop-color="#4474a5"/><stop offset="1" stop-color="#4a6f95"/></linearGradient><linearGradient xlink:href="#a" id="b" x1="58.479" y1="15.853" x2="73.065" y2="47.357" gradientUnits="userSpaceOnUse" gradientTransform="matrix(.42533 0 0 .49773 -21.436 22.08)"/><linearGradient xlink:href="#a" id="c" gradientUnits="userSpaceOnUse" gradientTransform="matrix(-.42533 0 0 .4986 45.447 22.039)" x1="71.96" y1="9.065" x2="57.322" y2="49.724"/></defs><g color="#000" font-weight="400" font-family="sans-serif" white-space="normal" fill-rule="evenodd" stroke="#2d4689" stroke-linecap="round" stroke-linejoin="round"><path style="line-height:normal;text-indent:0;text-align:start;text-decoration-line:none;text-decoration-style:solid;text-decoration-color:#000;text-transform:none;block-progression:tb;isolation:auto;mix-blend-mode:normal" d="M8.335 25.536a2.127 2.489 0 0 0-1.746 1.1L1.881 34.59a2.127 2.489 0 0 0 0 2.835l4.708 7.954a2.127 2.489 0 1 0 3.497-2.835l-3.87-6.536 3.87-6.537a2.127 2.489 0 0 0-1.75-3.935z" overflow="visible" fill="url(#b)" transform="translate(0 -24)"/><path style="line-height:normal;text-indent:0;text-align:start;text-decoration-line:none;text-decoration-style:solid;text-decoration-color:#000;text-transform:none;block-progression:tb;isolation:auto;mix-blend-mode:normal" d="M15.612 25.5a2.127 2.493 0 0 0-1.686 3.942l3.87 6.547-3.87 6.548a2.127 2.493 0 1 0 3.496 2.84l4.709-7.968a2.127 2.493 0 0 0 0-2.84l-4.709-7.967a2.127 2.493 0 0 0-1.81-1.102z" overflow="visible" fill="url(#c)" transform="translate(0 -24)"/></g></svg>