<svg xmlns="http://www.w3.org/2000/svg" xmlns:xlink="http://www.w3.org/1999/xlink" width="24" height="24"><defs><linearGradient id="a"><stop offset="0" stop-color="#87abcf"/><stop offset=".67" stop-color="#4474a5"/><stop offset="1" stop-color="#4a6f95"/></linearGradient><linearGradient xlink:href="#a" id="b" x1="55.595" y1="27.98" x2="83.097" y2="24.877" gradientUnits="userSpaceOnUse" gradientTransform="matrix(0 .4242 -.49736 0 25.916 2.63)"/><linearGradient xlink:href="#a" id="c" gradientUnits="userSpaceOnUse" gradientTransform="matrix(0 -.42332 -.498 0 25.906 69.317)" x1="72.801" y1="30.353" x2="46.549" y2="25.627"/></defs><g color="#000" font-weight="400" font-family="sans-serif" white-space="normal" fill-rule="evenodd" stroke="#2d4689" stroke-linecap="round" stroke-linejoin="round"><path style="line-height:normal;text-indent:0;text-align:start;text-decoration-line:none;text-decoration-style:solid;text-decoration-color:#000;text-transform:none;block-progression:tb;isolation:auto;mix-blend-mode:normal" d="M12.01 25.5a2.485 2.128 0 0 0-1.421.377L2.64 30.573a2.485 2.128 0 1 0 2.823 3.502L12 30.212l6.537 3.863a2.485 2.128 0 1 0 2.822-3.502l-7.948-4.696a2.485 2.128 0 0 0-1.401-.377z" overflow="visible" fill="url(#b)" transform="translate(0 -24)"/><path style="line-height:normal;text-indent:0;text-align:start;text-decoration-line:none;text-decoration-style:solid;text-decoration-color:#000;text-transform:none;block-progression:tb;isolation:auto;mix-blend-mode:normal" d="M4.027 37.541a2.487 2.127 0 0 0-1.424 3.895l7.958 4.687a2.487 2.127 0 0 0 2.822 0l7.958-4.687a2.487 2.127 0 1 0-2.822-3.503l-6.547 3.857-6.547-3.857a2.487 2.127 0 0 0-1.398-.392z" overflow="visible" fill="url(#c)" transform="translate(0 -24)"/></g></svg>