<svg xmlns="http://www.w3.org/2000/svg" xmlns:xlink="http://www.w3.org/1999/xlink" height="24" width="24"><defs><linearGradient id="a"><stop offset="0" stop-color="#528424"/><stop offset=".9" stop-color="#78bf34"/><stop offset="1" stop-color="#acdb81"/></linearGradient><radialGradient xlink:href="#a" id="b" cx="64.221" cy="35.852" fx="64.221" fy="35.852" r="22.335" gradientTransform="matrix(.3073 -.19858 .17021 .33295 13.179 16.249)" gradientUnits="userSpaceOnUse"/></defs><path d="M0 10.536c.722 3.083 5.96 9.07 16.095 7.231v2.972C4.993 22.942.033 16.545 0 14.105zM10.65 10.536l10.376 1.782v2.203l-8.547-1.559z" fill="#244517"/><path transform="matrix(.63724 .77015 -.92658 .37385 0 -25.095)" d="M47.563 15.963a8.563 8.863 0 0 1-7.08 8.204 8.563 8.863 0 0 1-9.34-5.246 8.563 8.863 0 0 1 2.785-10.615 8.563 8.863 0 0 1 10.622.366l-5.535 6.763z" fill="url(#b)" stroke="#244517" stroke-width="1.25" stroke-linecap="square" stroke-linejoin="round"/><path d="M16.115 16.476v-2.425l7.809 1.3v2.593c-.127 1.404-3.382 2.93-4.212 3.161l-3.597-4.629z" fill="#6e222c" fill-rule="evenodd"/><path d="M16.17 14.125L24 15.178c-.537 2.158-2.517 2.992-4.198 3.453l-3.633-4.506z" fill="#ca2d32" fill-rule="evenodd"/></svg>