<svg xmlns="http://www.w3.org/2000/svg" xmlns:xlink="http://www.w3.org/1999/xlink" width="24" height="24"><defs><linearGradient id="a"><stop offset="0" stop-color="#3a5d19"/><stop offset=".25" stop-color="#6daf30"/><stop offset=".75" stop-color="#78bf34"/><stop offset="1" stop-color="#acdb81"/></linearGradient><linearGradient xlink:href="#a" id="c" x1="39.034" y1="40.076" x2="28.464" y2="17.537" gradientUnits="userSpaceOnUse" gradientTransform="matrix(.49524 0 0 .47705 -1.086 23.78)"/><filter id="b" x="-.093" width="1.187" y="-.099" height="1.197" color-interpolation-filters="sRGB"><feGaussianBlur stdDeviation=".17"/></filter></defs><path d="M10.322 1.5L.5 1.546V19.5h14.955L15.5 6.77z" fill="#f2f2f2" stroke="#b3b3b3" stroke-linecap="square"/><path d="M11.422 25.16l-.06 4.093 4.377.052z" transform="matrix(1.18945 0 0 1.28959 -3.315 -30.941)" fill="#fff" fill-rule="evenodd" stroke="gray" stroke-width=".807" filter="url(#b)" opacity=".907"/><g><path d="M11.346 30.296l-1.197 1.296c-.828.79-.171 1.644.404 2.111l5.468 4.402-5.98 4.72c-.58.461-.552 1.261.077 1.794l1.103 1.22c.63.533 1.175.825 2.19.121l8.622-6.86c.49-.506.421-1.528 0-2.005l-8.497-6.89c-.816-.474-1.28-.621-2.19.09z" fill="url(#c)" stroke="#3a5d19" stroke-width="1.25" stroke-linecap="square" stroke-linejoin="round" stroke-miterlimit="2.8" transform="translate(0 -24)"/></g></svg>