<svg xmlns="http://www.w3.org/2000/svg" xmlns:xlink="http://www.w3.org/1999/xlink" width="48" height="48"><defs><linearGradient id="c"><stop offset="0" stop-color="#3a5d19"/><stop offset=".25" stop-color="#6daf30"/><stop offset=".75" stop-color="#78bf34"/><stop offset="1" stop-color="#acdb81"/></linearGradient><linearGradient xlink:href="#a" id="l" gradientUnits="userSpaceOnUse" gradientTransform="matrix(.5034 .03256 -.03083 .57185 -.597 13.028)" x1="31.591" y1="26.308" x2="46.987" y2="41.692"/><linearGradient xlink:href="#a" id="k" gradientUnits="userSpaceOnUse" gradientTransform="matrix(.53158 .03438 -.0292 .54154 -.889 12.696)" x1="11.885" y1="41.069" x2="16.236" y2="45.422"/><linearGradient xlink:href="#a" id="j" gradientUnits="userSpaceOnUse" gradientTransform="matrix(.63253 .14006 -.09173 .4364 1.12 9.462)" x1="33.976" y1="15.856" x2="38.279" y2="20.126"/><linearGradient xlink:href="#a" id="i" gradientUnits="userSpaceOnUse" gradientTransform="matrix(.49333 .0319 -.03146 .58354 -.677 12.61)" x1="29.236" y1="5.805" x2="35.311" y2="11.849"/><linearGradient xlink:href="#a" id="h" gradientUnits="userSpaceOnUse" gradientTransform="matrix(.61583 -.55375 .23601 .25687 -4.557 20.903)" x1="7.728" y1="19.308" x2="10.213" y2="23.369"/><linearGradient id="a"><stop offset="0" stop-color="#fff"/><stop offset="1" stop-color="#fff" stop-opacity="0"/></linearGradient><linearGradient xlink:href="#a" id="g" gradientUnits="userSpaceOnUse" gradientTransform="matrix(.6201 .0401 -.02503 .46424 -.889 12.696)" x1="4.66" y1="32.07" x2="10.736" y2="37.985"/><linearGradient id="b"><stop offset="0" stop-color="#cc363d"/><stop offset="1" stop-color="#e3443c"/></linearGradient><linearGradient xlink:href="#b" id="f" gradientUnits="userSpaceOnUse" gradientTransform="matrix(.78922 .05104 -.04152 .77011 12.067 -13.173)" x1="23.106" y1="69.479" x2="-4.555" y2="39.899"/><linearGradient xlink:href="#c" id="d" x1="45.5" y1="23.812" x2="39.852" y2="4.827" gradientUnits="userSpaceOnUse" gradientTransform="translate(-2.186 2.16)"/><linearGradient xlink:href="#a" id="e" x1="33.25" y1="14.101" x2="38.563" y2="19.983" gradientUnits="userSpaceOnUse" gradientTransform="translate(-2.186 2.16)"/></defs><path d="M45.566 2.648h-6.49c.03 5.051-.147 9.846-3.087 12.47l-3.212-3.543-2.945 13.897 14.72-1.662-3.862-4.212c2.686-1.933 5.153-8.816 4.876-16.95z" fill="url(#d)" fill-rule="evenodd" stroke="#244517"/><path d="M30.404 25l2.757-12.403 4.965 5.697C36.081 20.5 32.003 23.931 30.404 25z" font-size="12" opacity=".743" fill="url(#e)" fill-rule="evenodd"/><path d="M30.293 32.684c-.135 3.896-3.398 1.025-5.265 3.8-1.821 2.773 3.051 4.283.252 6.798-2.88 2.659-3.148-2.199-6.115-1.832-3.298.474-.42 4.788-4.255 4.54-3.383-.294-.449-3.046-3.525-4.82-3.149-1.852-3.996 2.541-6.433-.097-2.687-2.913 2.803-2.93 1.302-5.729-1.493-2.835-5.122-.27-5.057-4.244.131-3.822 3.966-.534 5.395-3.42 1.386-2.862-2.91-4.533-.273-6.426 2.99-2.064 3.524 2.77 6.116 1.831 2.526-.874.161-5.548 4.004-5.449 4.136.193.863 4.009 3.407 5.63 2.506 1.556 4.584-2.564 6.685-.407 2.171 2.238-1.957 2.86-1.365 5.502.62 2.853 5.035.487 5.127 4.323zm-8.367.19c-.22 4.085-1.889 5.651-5.993 5.386-4.103-.266-6.268-2.177-6.048-6.262.111-3.661 2.72-5.791 6.392-5.554 4.104.266 5.869 2.345 5.649 6.43z" font-size="12" opacity=".303" fill-rule="evenodd"/><path d="M12.193 36.909c2.72.782 5.833 1.15 8.198-1.389 1.56-1.62 1.555-6.601.281-8.968 1.308 1.49 3.186 7.706.403 9.892-3.361 2.697-7.091 1.814-8.882.465z" font-size="12" opacity=".7" fill-rule="evenodd" stroke="#fff" stroke-width=".159"/><path d="M28.907 31.126c-.132 3.803-3.317 1-5.14 3.71-1.778 2.707 2.979 4.18.246 6.636-2.812 2.596-3.073-2.146-5.97-1.787-3.22.462-.41 4.673-4.154 4.431-3.303-.286-.439-2.974-3.442-4.704-3.074-1.81-3.9 2.48-6.28-.096-2.623-2.844 2.737-2.86 1.27-5.593-1.457-2.768-5-.263-4.936-4.144.128-3.73 3.872-.52 5.267-3.338 1.353-2.794-2.842-4.426-.266-6.274 2.918-2.015 3.44 2.704 5.97 1.788 2.466-.854.158-5.418 3.91-5.32 4.038.188.842 3.913 3.326 5.497 2.446 1.518 4.475-2.505 6.526-.398 2.12 2.184-1.91 2.792-1.332 5.371.604 2.786 4.915.475 5.005 4.22zm-8.169.186c-.192 3.559-2.351 5.312-5.85 5.257-3.662-.236-6.188-2.473-5.905-6.113.192-3.559 2.234-5.681 6.24-5.422 3.667.15 5.62 2.713 5.515 6.278z" font-size="12" fill="url(#f)" fill-rule="evenodd" stroke="#4f181a"/><path d="M1.265 30.594c-.09-.145-.404-1.728.039-2.038.814-.57 3.652-.73 3.731-.603.074.118-2.374.706-3.273 1.336-.358.25-.435 1.405-.497 1.305z" font-size="12" opacity=".99" fill="url(#g)" fill-rule="evenodd"/><path d="M5.301 21.396c-.097-.105.144-.58.53-.96.413-.408 1.238-.339 1.332-.236.082.09-1.783 1.282-1.862 1.196z" font-size="12" opacity=".99" fill="url(#h)" fill-rule="evenodd"/><path d="M13.403 19.786c-.057-.171.072-1.858.663-2.46.479-.487 2.49-.212 2.542-.057.05.148-1.702.418-2.238.965-.533.543-.923 1.683-.967 1.552z" font-size="12" opacity=".99" fill="url(#i)" fill-rule="evenodd"/><path d="M20.804 22.885c.46-.34 2.83-1.196 3.06-1.146.159.036-1.233 1.155-1.895 1.403-.357.134-1.337-.13-1.165-.257z" font-size="12" opacity=".99" fill="url(#j)" fill-rule="evenodd"/><path d="M4.106 37.69c.128-.3 2.001-2.02 2.405-2.191.195-.083-.25 1.098-.61 1.427-.442.402-1.87.94-1.795.764z" font-size="12" opacity=".99" fill="url(#k)" fill-rule="evenodd"/><path d="M14.033 37.777c-.174-.252 4.316.292 6.175-2.27 2.212-2.996 1.447-6.164 1.616-5.92.205.297.579 5.303-.796 6.749-1.222 1.284-6.795 1.73-6.995 1.44z" fill="url(#l)" fill-rule="evenodd"/></svg>