<svg xmlns="http://www.w3.org/2000/svg" xmlns:xlink="http://www.w3.org/1999/xlink" width="20" height="20"><defs><linearGradient id="c"><stop offset="0" stop-color="#3a5d19"/><stop offset=".25" stop-color="#6daf30"/><stop offset=".75" stop-color="#78bf34"/><stop offset="1" stop-color="#acdb81"/></linearGradient><linearGradient xlink:href="#a" id="l" gradientUnits="userSpaceOnUse" gradientTransform="matrix(.1997 .01239 -.01223 .21755 0 7.13)" x1="31.591" y1="26.308" x2="46.987" y2="41.692"/><linearGradient xlink:href="#a" id="k" gradientUnits="userSpaceOnUse" gradientTransform="matrix(.19396 .01386 -.01065 .21828 .289 6.538)" x1="11.885" y1="41.069" x2="16.236" y2="45.422"/><linearGradient xlink:href="#a" id="j" gradientUnits="userSpaceOnUse" gradientTransform="matrix(.21576 .05645 -.03129 .1759 1.866 5.334)" x1="33.976" y1="15.856" x2="38.279" y2="20.126"/><linearGradient xlink:href="#a" id="i" gradientUnits="userSpaceOnUse" gradientTransform="matrix(.14254 .01286 -.00909 .2352 1.653 6.73)" x1="29.236" y1="5.805" x2="35.311" y2="11.849"/><linearGradient xlink:href="#a" id="h" gradientUnits="userSpaceOnUse" gradientTransform="matrix(.16779 -.14159 .0643 .13481 -.072 8.628)" x1="7.728" y1="19.308" x2="10.213" y2="23.369"/><linearGradient id="a"><stop offset="0" stop-color="#fff"/><stop offset="1" stop-color="#fff" stop-opacity="0"/></linearGradient><linearGradient xlink:href="#a" id="g" gradientUnits="userSpaceOnUse" gradientTransform="matrix(.18 .04735 -.00726 .15065 .405 7.702)" x1="4.66" y1="32.07" x2="10.736" y2="37.985"/><linearGradient id="b"><stop offset="0" stop-color="#cc363d"/><stop offset="1" stop-color="#e3443c"/></linearGradient><linearGradient xlink:href="#b" id="f" gradientUnits="userSpaceOnUse" gradientTransform="matrix(.3056 .02028 -.01608 .30593 4.979 -3.761)" x1="23.106" y1="69.479" x2="-4.555" y2="39.899"/><linearGradient xlink:href="#c" id="d" x1="45.5" y1="23.812" x2="39.852" y2="4.827" gradientUnits="userSpaceOnUse" gradientTransform="matrix(.3967 0 0 .40306 -.419 1.298)"/><linearGradient xlink:href="#a" id="e" x1="33.25" y1="14.101" x2="38.563" y2="19.983" gradientUnits="userSpaceOnUse" gradientTransform="matrix(.31171 0 0 .31992 2.741 2.87)"/></defs><path d="M18.525 1.495H15.95c.011 2.036-.058 3.969-1.225 5.026l-1.274-1.428-1.168 5.602 5.84-.67-1.533-1.698c1.066-.78 2.044-3.553 1.935-6.832z" fill="url(#d)" fill-rule="evenodd" stroke="#244517"/><path d="M12.9 10.176l.86-3.968 1.547 1.823c-.637.705-1.908 1.803-2.407 2.145z" font-size="12" opacity=".743" fill="url(#e)" fill-rule="evenodd"/><path d="M12.294 14.633c-.054 1.57-1.348.413-2.09 1.531-.721 1.118 1.211 1.727.101 2.74-1.143 1.072-1.249-.886-2.426-.738-1.308.191-.167 1.93-1.688 1.83-1.342-.118-.178-1.228-1.398-1.942-1.25-.747-1.585 1.024-2.552-.04-1.066-1.174 1.112-1.18.516-2.309-.592-1.143-2.031-.108-2.006-1.71.052-1.541 1.574-.216 2.14-1.379.55-1.153-1.154-1.827-.108-2.59 1.186-.832 1.398 1.116 2.426.738 1.002-.353.064-2.237 1.589-2.196 1.64.077.342 1.615 1.351 2.269.994.627 1.819-1.034 2.652-.164.862.902-.776 1.153-.541 2.217.246 1.15 1.997.197 2.034 1.743zm-3.32.077c-.087 1.646-.749 2.277-2.377 2.17-1.628-.107-2.486-.877-2.399-2.524.044-1.475 1.079-2.334 2.536-2.238 1.628.107 2.328.945 2.24 2.592z" font-size="12" opacity=".303" fill-rule="evenodd"/><path d="M5.113 16.336c1.08.315 2.314.463 3.253-.56.619-.653.616-2.66.111-3.615.519.601 1.264 3.106.16 3.987-1.333 1.087-2.813.731-3.524.188z" font-size="12" opacity=".7" fill-rule="evenodd" stroke="#fff" stroke-width=".159"/><path d="M11.5 13.836c-.051 1.511-1.285.398-1.99 1.474-.69 1.076 1.153 1.661.095 2.637-1.09 1.03-1.19-.853-2.312-.71-1.247.183-.159 1.856-1.609 1.76-1.278-.114-.17-1.181-1.332-1.869-1.19-.719-1.51.985-2.432-.038-1.016-1.13 1.06-1.136.492-2.222-.564-1.1-1.936-.104-1.912-1.646.05-1.482 1.5-.207 2.04-1.326.524-1.11-1.1-1.758-.103-2.492 1.13-.8 1.332 1.074 2.311.71.956-.34.062-2.152 1.514-2.114 1.564.075.327 1.555 1.288 2.184.948.603 1.733-.995 2.527-.158.821.868-.74 1.11-.515 2.134.234 1.106 1.903.189 1.938 1.676zm-3.164.074c-.074 1.414-.91 2.11-2.265 2.089-1.418-.094-2.396-.983-2.286-2.428.074-1.414.865-2.257 2.416-2.155 1.42.06 2.176 1.078 2.135 2.494z" font-size="12" fill="url(#f)" fill-rule="evenodd" stroke="#4f181a"/><path d="M1.03 13.682c-.026-.053-.117-.588.011-.665.236-.142 1.06-.038 1.083.008.022.043-.689.1-.95.257-.104.062-.126.436-.144.4z" font-size="12" opacity=".99" fill="url(#g)" fill-rule="evenodd"/><path d="M2.614 10.133c-.027-.056.039-.215.144-.317.113-.11.338.028.363.082.022.046-.486.28-.507.235z" font-size="12" opacity=".99" fill="url(#h)" fill-rule="evenodd"/><path d="M5.72 9.622c-.016-.069.021-.748.192-.991.139-.197.72-.086.735-.023.014.06-.492.168-.647.389-.154.218-.267.678-.28.625z" font-size="12" opacity=".99" fill="url(#i)" fill-rule="evenodd"/><path d="M8.58 10.744c.157-.137.966-.482 1.044-.461.054.014-.42.465-.646.565-.122.054-.456-.052-.397-.104z" font-size="12" opacity=".99" fill="url(#j)" fill-rule="evenodd"/><path d="M2.111 16.612c.047-.12.73-.814.877-.883.072-.034-.09.442-.222.575-.161.162-.683.379-.655.308z" font-size="12" opacity=".99" fill="url(#k)" fill-rule="evenodd"/><path d="M5.804 16.545c-.069-.096 1.713.11 2.45-.864.878-1.14.574-2.345.641-2.252.082.113.23 2.017-.316 2.567-.484.489-2.695.658-2.775.549z" fill="url(#l)" fill-rule="evenodd"/></svg>