<svg xmlns="http://www.w3.org/2000/svg" xmlns:xlink="http://www.w3.org/1999/xlink" width="24" height="24"><defs><linearGradient id="a"><stop offset="0" stop-color="#f2f185"/><stop offset="1" stop-color="#ada149"/></linearGradient><linearGradient xlink:href="#a" id="d" gradientTransform="matrix(.42029 0 0 .50693 .614 24.274)" x1="20.881" y1="3.687" x2="31.46" y2="35.498" gradientUnits="userSpaceOnUse"/><linearGradient id="b"><stop offset="0" stop-color="#fff"/><stop offset="1" stop-color="#fff" stop-opacity="0"/></linearGradient><linearGradient xlink:href="#b" id="f" x1="33.547" y1="14.476" x2="39.171" y2="19.277" gradientTransform="matrix(.4435 0 0 .46225 -11.256 25.958)" gradientUnits="userSpaceOnUse"/><linearGradient id="c"><stop offset="0" stop-color="#6c51e9"/><stop offset="1" stop-color="#7977cc"/></linearGradient><linearGradient xlink:href="#c" id="e" x1="60.452" y1="-34.641" x2="32.715" y2="-11.059" gradientTransform="matrix(.40501 0 0 -.5657 -12.165 25.24)" gradientUnits="userSpaceOnUse"/></defs><path d="M2.641 22.774H21.06" fill="none" stroke="#65490a" stroke-width="2" stroke-linecap="square"/><path d="M2.197 23.5h19.368" fill="none" stroke="#574e42" stroke-linecap="square"/><path d="M22.25 22.405l-1.146-.494-.012.596 1.157-.102zm-18.64-.098l-.227-.486-1.85.03.64.477 1.437-.021z" fill="#65490a" fill-rule="evenodd"/><path d="M1.963 1l20.095.026" fill="none" stroke="#65490a" stroke-width="2"/><rect width="17.064" height="20.32" x="3.458" y="25.726" rx=".13" ry="0" fill="url(#d)" stroke="#574e42" stroke-linecap="square" transform="translate(0 -24)"/><g fill-rule="evenodd"><path d="M10.014 23.118c-.251.506-6.344.318-6.68 0-.384-.377.25-6.524 0-7.027-.193-.437-3.227.426-3.123 0 .108-.397 4.907-8.54 6.245-8.58 1.26.018 6.51 8.022 6.608 8.58.078.491-2.969-.298-3.195.091-.3.49.449 6.391.145 6.936z" font-size="12" opacity=".303"/><path d="M9.138 46.353c-.226.51-5.68.32-5.982 0-.343-.38.224-6.586 0-7.094-.172-.44-2.889.43-2.796 0 .097-.4 4.312-8.621 5.592-8.66 1.169.017 5.828 8.097 5.916 8.66.07.496-2.658-.3-2.86.092-.269.495.401 6.452.13 7.002z" font-size="12" fill="url(#e)" stroke="#261933" transform="translate(0 -24)"/><path d="M6.08 22.604c-.05-.648-.339-15.454-.028-15.927.228-.39 4.995 6.521 5.677 8.494.24.695-2.5-.795-2.795.041-.531 1.505.6 5.259.115 6.984-.09.366-2.931.835-2.968.408z" opacity=".202" fill="#261e2e"/><path d="M1.065 38.944c.985-2.075 1.632-3.334 2.004-3.896.978-1.476 2.075-3.32 2.952-3.931 1.198 1.472 1.056 1.21.77 2.251-1.146-1.961-1.634.1-2.133 1.365-.29.736-2.06 2.68-3.593 4.211z" fill="url(#f)" transform="translate(0 -24)"/></g></svg>