<svg xmlns="http://www.w3.org/2000/svg" xmlns:xlink="http://www.w3.org/1999/xlink" width="24" height="24"><defs><linearGradient id="a"><stop offset="0" stop-color="#fff"/><stop offset="1" stop-color="#fff" stop-opacity="0"/></linearGradient><linearGradient xlink:href="#a" id="j" x1="7.053" y1="9.328" x2="34.944" y2="36.071" gradientTransform="matrix(.2155 0 0 .2826 13.29 26.908)" gradientUnits="userSpaceOnUse"/><linearGradient id="b"><stop offset="0" stop-color="#ea4a30"/><stop offset="1" stop-color="#b9411c"/></linearGradient><linearGradient xlink:href="#b" id="i" x1="4.15" y1="5.278" x2="54.585" y2="54.579" gradientTransform="matrix(.19994 0 0 .32563 12.773 26.96)" gradientUnits="userSpaceOnUse"/><linearGradient id="e"><stop offset="0" stop-color="#f2f185"/><stop offset="1" stop-color="#ada149"/></linearGradient><linearGradient id="d"><stop offset="0" stop-color="#f5efef"/><stop offset="1" stop-opacity="0"/></linearGradient><linearGradient id="c"><stop offset="0" stop-color="#c1d4ee" stop-opacity=".904"/><stop offset="1" stop-color="#fff" stop-opacity=".558"/></linearGradient><linearGradient xlink:href="#c" id="f" x1="51.851" y1="14.698" x2="43.194" y2="48.679" gradientUnits="userSpaceOnUse" gradientTransform="matrix(.27782 .18069 .1045 -.50441 -4.938 43.664)"/><linearGradient xlink:href="#d" id="g" gradientTransform="matrix(1.8682 0 0 .07952 .658 24.512)" x1="5.959" y1="266.657" x2="6.238" y2="281.524" gradientUnits="userSpaceOnUse"/><linearGradient xlink:href="#e" id="h" gradientTransform="matrix(.41871 0 0 .3501 .667 24.463)" x1="20.881" y1="3.687" x2="31.46" y2="35.498" gradientUnits="userSpaceOnUse"/></defs><path d="M4.975 46.277H19.8l-.062-19.42H4.987l-.012 19.42z" fill="url(#f)" fill-rule="evenodd" stroke="#65490a" stroke-width="2" transform="translate(0 -24)"/><path d="M21.33 22.801l-1.051-.705.063.789.987-.084zM3.992 22.43l-2.122-.025.762.7 1.4-.005-.04-.67z" fill="#65490a" fill-rule="evenodd"/><path d="M2.49 23.486l19 .014" fill="none" stroke="#574e42" stroke-linecap="square"/><path d="M2.462 23.003h19.057" fill="none" stroke="#65490a" stroke-linecap="square"/><path d="M5.055 45.824l14.238-.03.509.545H4.756l.3-.515z" fill="url(#g)" fill-rule="evenodd" transform="translate(0 -24)"/><g transform="translate(0 -24)"><rect width="17" height="14.034" x="3.5" y="25.466" rx=".129" ry="0" fill="url(#h)" stroke="#574e42" stroke-linecap="square"/><path d="M1.922 25l20.178.026" fill="none" stroke="#65490a" stroke-width="2"/></g><g fill-rule="evenodd"><path d="M22.006 5.531c-.197-.512-4.977-.322-5.24 0-.301.383.195 6.613 0 7.122-.151.443-2.532-.432-2.45 0 .085.402 3.849 8.656 4.899 8.695.988-.017 5.107-8.13 5.184-8.695.06-.498-2.33.302-2.507-.092-.235-.496.352-6.477.114-7.03z" font-size="12" opacity=".303"/><path d="M21.288 28.944c-.195-.513-4.899-.322-5.158 0-.296.383.193 6.623 0 7.133-.149.443-2.491-.433-2.411 0 .083.403 3.718 8.669 4.821 8.708 1.008-.018 5.027-8.142 5.102-8.708.06-.499-2.292.302-2.466-.093-.232-.496.346-6.487.112-7.04z" font-size="12" fill="url(#i)" stroke="#4d070a" transform="translate(0 -24)"/><path d="M18.651 4.692c-.044.652-.292 15.54-.024 16.014.196.393 4.307-6.556 4.895-8.54.208-.7-2.156.8-2.41-.042-.458-1.513.517-5.287.1-7.021-.079-.369-2.528-.84-2.56-.411z" opacity=".202" fill="#261e2e"/><path d="M14.85 37.72c-.213-.636-.538-1.164-.393-1.208.524-.16 1.877.529 2.135-.048.225-1.744-.285-6.606-.008-6.988.213-.425 4.153-.306 4.234-.15.073.14-3.218.412-3.612 1.1-.298.574.297 5.08-.125 6.43-.247.786-1.132.217-1.803.237-.101.003-.364.239-.428.627z" fill="url(#j)" transform="translate(0 -24)"/></g></svg>