<svg xmlns="http://www.w3.org/2000/svg" xmlns:xlink="http://www.w3.org/1999/xlink" width="24" height="24" version="1"><defs><linearGradient id="a"><stop offset="0" stop-color="#acdb81"/><stop offset=".25" stop-color="#78bf34"/><stop offset=".75" stop-color="#6daf30"/><stop offset="1" stop-color="#3a5d19"/></linearGradient><linearGradient id="b"><stop offset="0" stop-color="#fbb4b4"/><stop offset=".302" stop-color="#d5452c" stop-opacity=".988"/><stop offset=".959" stop-color="#b7281c"/><stop offset="1" stop-color="#990c0c" stop-opacity=".992"/></linearGradient><linearGradient id="c"><stop offset="0" stop-color="#cdd1fb"/><stop offset="1" stop-color="#7974ec"/></linearGradient><radialGradient xlink:href="#b" id="d" cx="13.375" cy="19.123" fx="13.375" fy="19.123" r="12.495" gradientTransform="matrix(-.99875 -.04998 .12733 -2.54303 24.298 67.627)" gradientUnits="userSpaceOnUse"/><radialGradient xlink:href="#c" id="m" cx="35.495" cy="14.004" fx="35.495" fy="14.004" r="12.495" gradientTransform="matrix(1 0 0 1.12008 0 -1.682)" gradientUnits="userSpaceOnUse"/><radialGradient xlink:href="#c" id="n" gradientUnits="userSpaceOnUse" gradientTransform="matrix(-1 0 0 -2.60072 70.99 22.826)" cx="35.495" cy="6.587" fx="35.495" fy="6.587" r="12.495"/><radialGradient xlink:href="#a" id="l" cx="21.495" cy="27.373" fx="21.495" fy="27.373" r="12.495" gradientTransform="matrix(-.489 -.02205 .04155 -.90412 20.151 62.578)" gradientUnits="userSpaceOnUse"/><radialGradient xlink:href="#b" id="e" gradientUnits="userSpaceOnUse" gradientTransform="matrix(-.99875 -.04998 .12733 -2.54303 24.298 67.627)" cx="13.375" cy="19.123" fx="13.375" fy="19.123" r="12.495"/><radialGradient xlink:href="#b" id="f" gradientUnits="userSpaceOnUse" gradientTransform="matrix(-.99875 -.04998 .12733 -2.54303 24.298 67.627)" cx="13.375" cy="19.123" fx="13.375" fy="19.123" r="12.495"/><radialGradient xlink:href="#b" id="g" gradientUnits="userSpaceOnUse" gradientTransform="matrix(-.99875 -.04998 .12733 -2.54303 24.298 67.627)" cx="13.375" cy="19.123" fx="13.375" fy="19.123" r="12.495"/><radialGradient xlink:href="#b" id="h" gradientUnits="userSpaceOnUse" gradientTransform="matrix(-.99875 -.04998 .12733 -2.54303 24.298 67.627)" cx="13.375" cy="19.123" fx="13.375" fy="19.123" r="12.495"/><radialGradient xlink:href="#b" id="i" gradientUnits="userSpaceOnUse" gradientTransform="matrix(-.99875 -.04998 .12733 -2.54303 24.298 67.627)" cx="13.375" cy="19.123" fx="13.375" fy="19.123" r="12.495"/><radialGradient xlink:href="#b" id="j" gradientUnits="userSpaceOnUse" gradientTransform="matrix(-.99875 -.04998 .12733 -2.54303 24.298 67.627)" cx="13.375" cy="19.123" fx="13.375" fy="19.123" r="12.495"/><radialGradient xlink:href="#b" id="k" gradientUnits="userSpaceOnUse" gradientTransform="matrix(-.99875 -.04998 .12733 -2.54303 24.298 67.627)" cx="13.375" cy="19.123" fx="13.375" fy="19.123" r="12.495"/><radialGradient xlink:href="#c" id="o" gradientUnits="userSpaceOnUse" gradientTransform="matrix(1 0 0 1.12008 0 -1.682)" cx="35.495" cy="14.004" fx="35.495" fy="14.004" r="12.495"/><radialGradient xlink:href="#c" id="p" gradientUnits="userSpaceOnUse" gradientTransform="matrix(1 0 0 1.12008 0 -1.682)" cx="35.495" cy="14.004" fx="35.495" fy="14.004" r="12.495"/><radialGradient xlink:href="#c" id="q" gradientUnits="userSpaceOnUse" gradientTransform="matrix(1 0 0 1.12008 0 -1.682)" cx="35.495" cy="14.004" fx="35.495" fy="14.004" r="12.495"/><radialGradient xlink:href="#c" id="r" gradientUnits="userSpaceOnUse" gradientTransform="matrix(1 0 0 1.12008 0 -1.682)" cx="35.495" cy="14.004" fx="35.495" fy="14.004" r="12.495"/><radialGradient xlink:href="#c" id="s" gradientUnits="userSpaceOnUse" gradientTransform="matrix(1 0 0 1.12008 0 -1.682)" cx="35.495" cy="14.004" fx="35.495" fy="14.004" r="12.495"/><radialGradient xlink:href="#c" id="t" gradientUnits="userSpaceOnUse" gradientTransform="matrix(1 0 0 1.12008 0 -1.682)" cx="35.495" cy="14.004" fx="35.495" fy="14.004" r="12.495"/></defs><g transform="matrix(.4895 0 0 .485 -.175 -5.232)" fill="url(#d)" fill-rule="evenodd"><path d="M13.403 12.31c-.827-.01-1.567-.228-2.904.276-3.287.909-5.463 1.257-6.4 7.473-.992-.5-1.689-.93-2.621.876-.28 2.76.059 4.442.767 6.138.404.934.962 1.157 1.619 1.18.296 2.405.732 4.458.954 5.36.445 1.814 2.768 4.431 4.104 5.137 1.337.705 2.03.682 5.06-.225s4.73-3.656 6.763-7.213c.28-.845.558-1.968.838-3.06.773.196 1.455.13 2.11-.842 1.009-1.538 1.445-2.652 1.677-5.417-.578-2.084-1.152-3.57-3.006-2.198-1.24-4.85-3.285-5.892-6.1-7.008-1.228-.254-2.034-.467-2.861-.478z" fill="url(#e)" stroke="#6e222c" stroke-width="2.052" stroke-linejoin="round"/><path d="M11.323 22.733c.014.844-.827 1.544-1.876 1.561-1.05.017-1.913-.654-1.927-1.498-.015-.844.826-1.544 1.876-1.561 1.05-.017 1.913.654 1.927 1.498z" fill="url(#f)" stroke="#000" stroke-width="2.882" stroke-opacity=".588"/><path d="M8.119 23.668c-.125-1.191 2.909-1.15 2.615.048-.72.746-2.398.407-2.615-.048z" fill="url(#g)" stroke="#000" stroke-width="2.796" stroke-linejoin="round" stroke-opacity=".392"/><path d="M17.535 22.837c.014.844-.827 1.543-1.876 1.56-1.05.018-1.913-.653-1.928-1.497-.014-.844.827-1.544 1.877-1.561 1.05-.018 1.913.653 1.927 1.498z" fill="url(#h)" stroke="#000" stroke-width="2.882" stroke-opacity=".588"/><path d="M14.33 23.772c-.124-1.191 2.91-1.15 2.616.048-.72.746-2.398.407-2.615-.048z" fill="url(#i)" stroke="#000" stroke-width="2.796" stroke-linejoin="round" stroke-opacity=".392"/><path d="M8.38 32.974c2.1.735 4.344.697 6.516.099" fill="url(#j)" stroke="#000" stroke-width="2.882" stroke-linecap="round" stroke-opacity=".588"/><path d="M12.282 25.986l-1.383 4.157" fill="url(#k)" stroke="#000" stroke-width="2.882" stroke-linecap="round" stroke-opacity=".588"/></g><path d="M10.791 34.436c-.405-.005-.767-.11-1.422.134-1.608.44-2.674.61-3.132 3.625-.486-.243-.827-.451-1.283.424-.137 1.34.028 2.154.375 2.977.198.453.47.561.792.572.146 1.167.359 2.163.467 2.6.219.88 1.355 2.15 2.01 2.491.654.343.993.331 2.476-.108 1.483-.44 2.316-1.774 3.311-3.499.137-.41.273-.954.41-1.484.378.095.713.063 1.033-.408.494-.746.707-1.287.821-2.628-.283-1.01-.564-1.731-1.472-1.066-.607-2.352-1.607-2.858-2.985-3.399-.602-.123-.996-.226-1.401-.231z" fill="url(#l)" fill-rule="evenodd" stroke="#3a5d19" stroke-linejoin="round" transform="translate(0 -24)"/><path d="M9.773 15.491c.007.41-.405.749-.919.757-.513.009-.936-.317-.943-.726-.007-.41.405-.749.918-.757.514-.009.937.317.944.726z" fill="none" stroke="#000" stroke-width="1.405" stroke-opacity=".588"/><path d="M8.204 15.945c-.06-.578 1.424-.558 1.28.023-.352.362-1.173.197-1.28-.023z" fill="none" stroke="#000" stroke-width="1.362" stroke-linejoin="round" stroke-opacity=".392"/><path d="M12.813 15.542c.007.41-.404.748-.918.757-.514.008-.936-.317-.943-.727-.007-.41.404-.748.918-.757.514-.008.937.317.943.727z" fill="none" stroke="#000" stroke-width="1.405" stroke-opacity=".588"/><path d="M11.245 15.995c-.06-.578 1.424-.557 1.28.023-.352.362-1.174.198-1.28-.023z" fill="none" stroke="#000" stroke-width="1.362" stroke-linejoin="round" stroke-opacity=".392"/><path d="M8.332 20.458c1.028.356 2.127.338 3.19.048M10.242 17.069l-.677 2.016" fill="none" stroke="#000" stroke-width="1.405" stroke-linecap="round" stroke-opacity=".588"/><g><g transform="matrix(.4895 0 0 .48486 .255 3.378)" fill="url(#m)" fill-rule="evenodd"><path d="M35.523.564c-.827-.01-1.567-.227-2.904.276-3.287.909-5.463 1.258-6.4 7.474-.992-.5-1.689-.93-2.62.876-.28 2.76.058 4.44.766 6.138.404.933.962 1.156 1.619 1.179.296 2.405.732 4.458.954 5.36.445 1.815 2.768 4.432 4.105 5.137 1.336.705 2.028.682 5.058-.224 3.03-.907 4.73-3.657 6.764-7.214.28-.844.558-1.968.839-3.06.772.197 1.455.13 2.11-.841 1.008-1.539 1.444-2.653 1.676-5.418-.578-2.084-1.152-3.57-3.006-2.198-1.24-4.849-3.285-5.892-6.1-7.008-1.228-.253-2.034-.467-2.86-.477z" fill="url(#n)" stroke="#20205d" stroke-width="2.053" stroke-linejoin="round" stroke-opacity=".976"/><path d="M33.443 10.987c.014.845-.827 1.544-1.876 1.561-1.05.018-1.913-.653-1.927-1.498-.014-.844.826-1.543 1.876-1.56 1.05-.018 1.913.653 1.927 1.497z" fill="url(#o)" stroke="#000" stroke-width="2.883" stroke-opacity=".588"/><path d="M30.24 11.922c-.125-1.19 2.908-1.15 2.614.048-.72.747-2.398.407-2.615-.048z" fill="url(#p)" stroke="#000" stroke-width="2.796" stroke-linejoin="round" stroke-opacity=".392"/><path d="M39.655 11.091c.014.844-.827 1.544-1.876 1.561-1.05.018-1.913-.653-1.927-1.498-.014-.844.826-1.543 1.876-1.56 1.05-.018 1.913.653 1.927 1.497z" fill="url(#q)" stroke="#000" stroke-width="2.883" stroke-opacity=".588"/><path d="M36.451 12.026c-.124-1.19 2.909-1.15 2.615.048-.72.746-2.398.407-2.615-.048z" fill="url(#r)" stroke="#000" stroke-width="2.796" stroke-linejoin="round" stroke-opacity=".392"/><path d="M30.5 21.229c2.1.734 4.344.697 6.516.098" fill="url(#s)" stroke="#000" stroke-width="2.883" stroke-linecap="round" stroke-opacity=".588"/><path d="M34.402 14.24l-1.383 4.157" fill="url(#t)" stroke="#000" stroke-width="2.883" stroke-linecap="round" stroke-opacity=".588"/></g></g></svg>