<svg xmlns="http://www.w3.org/2000/svg" xmlns:xlink="http://www.w3.org/1999/xlink" width="20" height="20"><defs><linearGradient id="b"><stop offset="0" stop-color="#3a5d19"/><stop offset=".095" stop-color="#6daf30"/><stop offset=".624" stop-color="#78bf34"/><stop offset="1" stop-color="#acdb81"/></linearGradient><linearGradient id="a"><stop offset="0" stop-color="#3a5d19"/><stop offset=".25" stop-color="#6daf30"/><stop offset=".533" stop-color="#78bf34"/><stop offset="1" stop-color="#acdb81"/></linearGradient><linearGradient id="d"><stop offset="0" stop-color="#3a5d19"/><stop offset=".25" stop-color="#6daf30"/><stop offset=".931" stop-color="#78bf34"/><stop offset="1" stop-color="#acdb81"/></linearGradient><linearGradient id="c"><stop offset="0" stop-color="#3a5d19"/><stop offset=".25" stop-color="#6daf30"/><stop offset=".595" stop-color="#78bf34"/><stop offset="1" stop-color="#acdb81"/></linearGradient><linearGradient xlink:href="#c" id="e" gradientUnits="userSpaceOnUse" gradientTransform="matrix(.15237 -.33831 .34565 .1487 -4.7 37.806)" x1="15.219" y1="46.43" x2="29.059" y2="31.542"/><linearGradient xlink:href="#d" id="f" gradientUnits="userSpaceOnUse" gradientTransform="matrix(.17937 -.3238 .33241 .17472 .795 46.583)" x1="16.142" y1="24.864" x2="30.753" y2="1.433"/></defs><path style="line-height:normal;text-indent:0;text-align:start;text-decoration-line:none;text-decoration-style:solid;text-decoration-color:#000;text-transform:none;block-progression:tb;isolation:auto;mix-blend-mode:normal" d="M8.837 30.152L4.58 36.536l-3.078-2.093.017 9.091 8.436-3.343-2.893-1.967 3.12-4.66 2.672 3.725c1.105 1.696 3.691.008 2.515-1.642l-3.933-5.556c-.764-.8-1.979-.784-2.6.06z" color="#000" font-weight="400" font-family="sans-serif" white-space="normal" overflow="visible" fill="url(#e)" fill-rule="evenodd" stroke="#244517" stroke-linecap="round" transform="translate(0 -28)"/><path style="line-height:normal;text-indent:0;text-align:start;text-decoration-line:none;text-decoration-style:solid;text-decoration-color:#000;text-transform:none;block-progression:tb;isolation:auto;mix-blend-mode:normal" d="M6.019 41.91l2.463 3.903c.593.912 1.97.923 2.578.02l7.184-10.67c.694-1.001-.083-2.337-1.331-2.29a1.54 1.54 0 0 0-1.233.687l-5.878 8.733-.91-1.472" color="#000" font-weight="400" font-family="sans-serif" white-space="normal" overflow="visible" fill="url(#f)" fill-rule="evenodd" stroke="#244517" transform="translate(0 -28)"/></svg>