<svg xmlns="http://www.w3.org/2000/svg" xmlns:xlink="http://www.w3.org/1999/xlink" width="24" height="24"><defs><linearGradient id="a"><stop offset="0" stop-color="#2e9a28"/><stop offset="1" stop-color="#5bb057" stop-opacity=".814"/></linearGradient><linearGradient id="b"><stop offset="0" stop-color="#046600"/><stop offset="1" stop-color="#600" stop-opacity="0"/></linearGradient><linearGradient y2="68.706" x2="30.017" y1="68.706" x1="17.172" gradientTransform="matrix(.44709 0 0 .19726 7.36 22.599)" gradientUnits="userSpaceOnUse" id="e" xlink:href="#a"/><linearGradient y2="738.494" x2="799.976" y1="738.494" x1="99.171" gradientTransform="matrix(.01805 .0012 -.00062 .01924 7.279 18.153)" gradientUnits="userSpaceOnUse" id="f" xlink:href="#b"/><linearGradient y2="68.706" x2="30.017" y1="68.706" x1="17.172" gradientTransform="matrix(.2782 0 0 .16453 11.107 26.914)" gradientUnits="userSpaceOnUse" id="c" xlink:href="#a"/><linearGradient y2="738.494" x2="799.976" y1="738.494" x1="99.171" gradientTransform="matrix(.01123 .001 -.00039 .01604 11.057 23.206)" gradientUnits="userSpaceOnUse" id="d" xlink:href="#b"/></defs><g fill-rule="evenodd"><path d="M11.973 2.499a10.5 8.641 0 0 0-8.215 3.288 10.5 8.641 0 0 0 1.673 12.095 10.5 8.641 0 0 0 8.181 1.789l4.955 2.247-1.731-3.11a10.5 8.641 0 0 0 3.303-2.208l.206-.215a10.5 8.641 0 0 0-1.905-12.07 10.5 8.641 0 0 0-6.467-1.816z" fill="#fff" stroke="#136217"/><path d="M15.807 37.738c.039.19.27.393.323.556.304-.196.533-.516.824-.432.259.076.474 1.025.735 1.067.388.062.83-.825 1.212-.755.204.037.503.311.685.67-.203-.546-.51-1.084-.75-1.232-.283-.177-.648.733-.958.666-.335-.073-.642-1.02-.977-1.088-.316-.064-.768.318-1.094.548z" fill="url(#c)" stroke="url(#d)" stroke-width=".094" stroke-opacity=".498" transform="translate(0 -24)"/></g><g transform="translate(0 -24)"><path d="M6.523 31.85c.028-.302-.458-.777-.867-.066-.403.7.125 1.115.409.86 1.08 1.545 2.512 2.592 4.546.21l1.334 2.07-2.783 2.046c-.576.423-.397 2.065-.606 3.11-.382.037-.568.156-.954.266-.238.124-.335.567-.04.644.688.015 1.177-.002 1.865.013.279-.298.273-2.845.69-3.49.323-.5 1.472-.91 2.385-1.432.266.814.447 1.673.799 2.44.361.787.894 1.483 1.341 2.224-.318.18-.455.295-.667.575-.126.338-.144.73.148.656.67-.247 1.32-.543 1.88-.844.204-.22-1.165-1.83-1.615-2.896-.495-1.17-.398-2.654-1.09-3.711l-1.493-2.28c1.57-.853 2.253-.232 3.125.986 0 .634.604.7.986.486.212-.228.49-.904-.186-.919-.72-1.244-1.696-2.802-4.513-1.442l-1.032-1.516c-.182.415-.6.65-1.03.695l.933 1.409c-1.91 2.004-2.364 1.255-3.565-.094z" fill="#5bb057" fill-rule="evenodd" stroke="#136217" stroke-width=".5" stroke-linejoin="round"/><path d="M15.102 35.764c.062.226.1.47.184.665.49-.234 1.002-.805 1.469-.703.416.09.762 1.228 1.182 1.279.624.074 1.334-.99 1.948-.906.328.045.808.373 1.1.804-.326-.655-.82-1.3-1.204-1.478-.457-.211-1.043.88-1.54.8-.54-.089-1.032-1.224-1.571-1.305-.508-.077-1.045.567-1.568.844z" fill="url(#e)" fill-rule="evenodd" stroke="url(#f)" stroke-width=".131" stroke-opacity=".498"/><ellipse cx="9.284" cy="29.462" rx="1.535" ry="1.562" fill="#5bb057" stroke="#136217" stroke-width=".5" stroke-linejoin="round"/></g></svg>