<svg xmlns="http://www.w3.org/2000/svg" xmlns:xlink="http://www.w3.org/1999/xlink" width="20" height="20" version="1"><defs><linearGradient id="d"><stop offset="0" stop-color="#be6c52"/><stop offset="1" stop-color="#c8aa80"/></linearGradient><linearGradient id="c"><stop offset="0" stop-color="#e8b291" stop-opacity=".961"/><stop offset="1" stop-color="#a46b22" stop-opacity=".961"/></linearGradient><linearGradient id="b"><stop offset="0" stop-color="#858585"/><stop offset=".5" stop-color="#cbcbcb"/><stop offset="1" stop-color="#6b6b6b"/></linearGradient><linearGradient id="a"><stop offset="0" stop-color="#1e2d69"/><stop offset="1" stop-color="#739ccd"/></linearGradient><linearGradient xlink:href="#a" id="e" x1="33.589" y1="50.593" x2="17.264" y2="2.133" gradientUnits="userSpaceOnUse" gradientTransform="matrix(.42857 0 0 .51429 .214 10.414)"/><linearGradient xlink:href="#b" id="f" x1="20.125" y1="21.844" x2="28.563" y2="42.469" gradientUnits="userSpaceOnUse" gradientTransform="matrix(.4217 0 0 .447 .592 11.96)"/><linearGradient xlink:href="#c" id="k" gradientUnits="userSpaceOnUse" gradientTransform="matrix(.02491 .02524 -.02155 .02334 10.048 4.091)" x1="287.253" y1="636.91" x2="406.29" y2="633.317"/><linearGradient xlink:href="#c" id="j" gradientUnits="userSpaceOnUse" gradientTransform="matrix(.01845 .01869 -.0291 .03152 9.965 4.462)" x1="512.164" y1="393.949" x2="567.255" y2="413.132"/><linearGradient xlink:href="#c" id="i" gradientUnits="userSpaceOnUse" gradientTransform="matrix(.0154 .0156 -.03488 .03777 9.825 4.387)" x1="545.949" y1="311.152" x2="635.131" y2="325.261"/><linearGradient xlink:href="#c" id="h" gradientUnits="userSpaceOnUse" gradientTransform="matrix(.01648 .0167 -.03257 .03528 10.302 4.006)" x1="409.914" y1="339.126" x2="579.996" y2="352.857"/><linearGradient xlink:href="#c" id="g" gradientUnits="userSpaceOnUse" gradientTransform="matrix(.00943 .01642 -.05691 .04512 11.921 2.994)" x1="522.534" y1="177.283" x2="700.981" y2="181.186"/></defs><g transform="translate(0 -12)"><path d="M1.967 13.5h17.066c.259 0 .467.214.467.48v17.04c0 .266-.208.48-.467.48H2.844L1.5 30.118V13.98c0-.266.208-.48.467-.48z" fill="url(#e)" stroke="#25375f" stroke-linecap="round" stroke-linejoin="round"/><path fill="#f5f5f5" d="M5 15.162h11V23H5z"/><rect ry=".078" rx=".069" y="14.021" x="5" height="2.063" width="11" fill="#c81100"/><rect width=".79" height=".797" x="2.717" y="14.957" rx=".077" ry=".078" opacity=".739"/><path d="M6.928 18h7.144M7 21h7.032" opacity=".331" stroke="#000" stroke-width="2" stroke-linecap="square"/><path d="M6.707 25.565h7.8c.35 0 .633.3.633.671v5.262H6.074v-5.262c0-.372.282-.671.633-.671z" fill="url(#f)" stroke="#454545"/><rect width="1.987" height="4.012" x="7.654" y="26.689" rx=".461" ry=".465" fill="#4967a2" stroke="#525252"/><path d="M2.66 23.077s1.554-1.347 2.194-1.855c.64-.507 1.777-1.567 2.414-2.046.658-.494 2.431-1.408 2.654-1.495.395-.156 1.426.583.777 1.523-.331.479-1.31.832-1.572 1.114-.372.4-1.568 1.554-2.24 2.007-.355.24-1.454 1.291-1.558 1.347-.104.056-2.669-.595-2.669-.595z" fill="url(#g)" fill-rule="evenodd" stroke="#4f3b0a"/><path d="M7.144 22.259s.404-.59.805-.593c.401-.003.961.202 1.099.535.138.332.173.826-.1 1.2-.275.372-1.405 1.47-1.647 1.706-.242.237-1.048.632-1.488.81a1.082 1.082 0 0 1-.792-.466c-.063-.29-.14-.584.103-.771.244-.188 1.43-.89 1.282-1.16-.148-.271-.247-.448-.027-.61.22-.163.765-.651.765-.651z" fill="url(#h)" fill-rule="evenodd" stroke="#4f3b0a"/><path d="M7.99 24.245c.355-.261.695-.518.993-.384.299.133.658.504.617.776-.04.272-.377.992-.541 1.042-.164.051-1.385.79-1.607.904-.221.113-.937.317-1.161.331-.224.015-.208-.005-.455-.197-.119-.284-.179-.595-.03-.781.091-.334 1.475-1.115 2.185-1.691z" fill="url(#i)" fill-rule="evenodd" stroke="#4f3b0a"/><path d="M9.8 27.158c.051-.285.162-.607.083-.928-.079-.32-.18-.616-.486-.589-1.03.391-2.02.992-2.898 1.414-.061.351-.11.601-.011.773.098.173.447.43 1.033.276.587-.153 2.226-.662 2.278-.946z" fill="url(#j)" fill-rule="evenodd" stroke="#4f3b0a"/><path d="M1.628 24.167c.165-.484.77-.997 1.144-1.148.374-.152 1.976-.637 2.38-.566.879.004 1.935-.121 2.36.536.144.098.81 1.253-.291 1.609-1.1.355-1.49.375-1.928.288-.267.044-.332.213-.315.423.016.21.342.499.744.58-.126.654-.036.8.037.898.308.407.199.488.387.491-.08.568.551.784.963.925.284.023 1.885-.482 2.385-.686-.275.839-1.756 2.287-3.88 3.15-1.425.369-2.495-.308-5.116.094v-5.29c.136-.29.712-.54 1.13-1.304z" fill="url(#k)" fill-rule="evenodd" stroke="#4f3b0a"/></g></svg>