<svg xmlns="http://www.w3.org/2000/svg" width="24" height="24"><rect width="22.999" height="11" x=".5" y=".5" rx="0" fill="#fff" stroke="#060500" stroke-linecap="round"/><g transform="translate(0 -24)"><rect width="23" height="11" x=".5" y="36.5" rx="0" fill="#fff" stroke="#060500" stroke-linecap="round"/><path d="M4 32h2.944m3.076 0h.02" fill="none" stroke="#9d2a2a" stroke-width="2" stroke-linecap="square"/><path d="M4 28h2.944m3.076 0h.02" fill="none" stroke="#2b13d8" stroke-width="2" stroke-linecap="square"/><path d="M14.02 32h1.96M20 32h.025" fill="none" stroke="#9d2a2a" stroke-width="2" stroke-linecap="square"/><path d="M14.021 28h1.958M20 28h.026" fill="none" stroke="#2b13d8" stroke-width="2" stroke-linecap="square"/><path d="M4.025 44H6.97m3.05 0h.02" fill="none" stroke="#a006a9" stroke-width="2" stroke-linecap="square"/><path d="M4.056 40H7m3 0h.02" fill="none" stroke="#379d2a" stroke-width="2" stroke-linecap="square"/><path d="M14.041 44h1.918M20 44h.025" fill="none" stroke="#a006a9" stroke-width="2" stroke-linecap="square"/><path d="M14.021 40h1.958M20 40h.026" fill="none" stroke="#379d2a" stroke-width="2" stroke-linecap="square"/></g></svg>