<svg xmlns="http://www.w3.org/2000/svg" width="24" height="24"><rect width="11" height="22" x=".5" y=".5" rx="0" fill="#fff" stroke="#060500" stroke-linecap="round"/><rect width="11" height="22" x="12.5" y="24.5" rx="0" fill="#fff" stroke="#060500" stroke-linecap="round" transform="translate(0 -24)"/><path d="M3.035 14H6M9 14h.02" fill="none" stroke="#379d2a" stroke-width="2" stroke-linecap="square"/><path d="M3 9h2.965M9 9h.02" fill="none" stroke="#9d2a2a" stroke-width="2" stroke-linecap="square"/><path d="M3 4h2.965M9 4h.02" fill="none" stroke="#2b13d8" stroke-width="2" stroke-linecap="square"/><path d="M3.035 19H6M9 19h.02" fill="none" stroke="#a006a9" stroke-width="2" stroke-linecap="square"/><path d="M15.035 14H18M21 14h.02" fill="none" stroke="#379d2a" stroke-width="2" stroke-linecap="square"/><path d="M15.035 9H18M21 9h.02" fill="none" stroke="#9d2a2a" stroke-width="2" stroke-linecap="square"/><path d="M15 4h2.965M21 4h.02" fill="none" stroke="#2b13d8" stroke-width="2" stroke-linecap="square"/><path d="M15.035 19H18M21 19h.02" fill="none" stroke="#a006a9" stroke-width="2" stroke-linecap="square"/></svg>