<svg xmlns="http://www.w3.org/2000/svg" xmlns:xlink="http://www.w3.org/1999/xlink" width="24" height="24"><defs><linearGradient id="a"><stop offset="0" stop-color="#3a5d19"/><stop offset=".25" stop-color="#6daf30"/><stop offset=".75" stop-color="#78bf34"/><stop offset="1" stop-color="#acdb81"/></linearGradient><linearGradient xlink:href="#a" id="c" x1="20.196" y1="23.032" x2="19.243" y2="5.371" gradientUnits="userSpaceOnUse" gradientTransform="matrix(.47168 0 0 .40706 .304 25.125)"/><linearGradient xlink:href="#a" id="b" x1="15.219" y1="46.43" x2="7.401" y2="24.333" gradientUnits="userSpaceOnUse" gradientTransform="matrix(.47129 0 0 .40574 1.06 27.363)"/></defs><g color="#000" font-weight="400" font-family="sans-serif" white-space="normal" fill-rule="evenodd" stroke="#244517" stroke-linecap="round" stroke-linejoin="round"><path style="line-height:normal;text-indent:0;text-align:start;text-decoration-line:none;text-decoration-style:solid;text-decoration-color:#000;text-transform:none;block-progression:tb;isolation:auto;mix-blend-mode:normal" d="M16.617 37.496l-13.206.008a1.885 1.623 0 1 0 .002 3.245l9.238-.004-2.885 3.05a1.885 1.623 0 1 0 2.923 2.05l5.391-5.7a1.885 1.623 0 0 0-1.463-2.649z" overflow="visible" fill="url(#b)" transform="translate(0 -24)"/><path style="line-height:normal;text-indent:0;text-align:start;text-decoration-line:none;text-decoration-style:solid;text-decoration-color:#000;text-transform:none;block-progression:tb;isolation:auto;mix-blend-mode:normal" d="M12.383 25.5a1.887 1.628 0 0 0-1.579.67l-4.933 5.682a1.887 1.628 0 0 0 1.502 2.605l13.205.043a1.887 1.628 0 1 0 .014-3.257l-9.45-.03 2.682-3.09a1.887 1.628 0 0 0-1.44-2.622z" overflow="visible" fill="url(#c)" transform="translate(0 -24)"/></g></svg>