<svg xmlns="http://www.w3.org/2000/svg" xmlns:xlink="http://www.w3.org/1999/xlink" width="24" height="24"><defs><linearGradient id="g"><stop offset="0" stop-color="#b1a254" stop-opacity=".825"/><stop offset="1" stop-color="#746528" stop-opacity=".979"/></linearGradient><linearGradient id="f"><stop offset="0" stop-color="#ebd6d5"/><stop offset=".714" stop-color="#e71610"/><stop offset="1" stop-color="#a81e18"/></linearGradient><linearGradient id="h"><stop offset="0" stop-color="#789684"/><stop offset="1" stop-color="#123b24"/></linearGradient><linearGradient id="i"><stop offset="0"/><stop offset="1" stop-opacity=".691"/></linearGradient><linearGradient id="e"><stop offset="0" stop-color="#fff"/><stop offset="1" stop-color="#fff" stop-opacity=".781"/></linearGradient><linearGradient id="a"><stop offset="0" stop-color="#fff"/><stop offset="1" stop-color="#d9cce6"/></linearGradient><linearGradient id="b"><stop offset="0" stop-color="#fff"/><stop offset="1" stop-color="#fff" stop-opacity=".722"/></linearGradient><linearGradient id="c"><stop offset="0" stop-color="#fff"/><stop offset="1" stop-color="#fff" stop-opacity="0"/></linearGradient><linearGradient id="d"><stop offset="0" stop-color="#e6e6cc"/><stop offset="1" stop-color="#c3b240"/></linearGradient><linearGradient y2="31.805" x2="33.71" y1="18.433" x1="-20.588" gradientTransform="matrix(.12318 -.00644 -.15056 1.09019 23.589 7.962)" gradientUnits="userSpaceOnUse" id="o" xlink:href="#g"/><radialGradient r="23.453" fy="14.941" fx="6.254" cy="14.941" cx="6.254" spreadMethod="pad" gradientTransform="matrix(.50229 .01783 0 .28027 -.062 24.714)" gradientUnits="userSpaceOnUse" id="n" xlink:href="#b"/><linearGradient y2="-96.528" x2="40.125" y1="-102.92" x1="1.885" gradientTransform="matrix(-.40223 .03016 .03595 -.3549 23.394 6.318)" gradientUnits="userSpaceOnUse" id="m" xlink:href="#b"/><radialGradient r="33.902" fy="15.472" fx="-16.961" cy="15.472" cx="-16.961" gradientTransform="matrix(-.41094 .01458 -.009 .34331 -.06 24.705)" gradientUnits="userSpaceOnUse" id="l" xlink:href="#h"/><linearGradient y2="113.388" x2="16.935" y1="69.061" x1="51.778" gradientTransform="matrix(-.42568 -.02484 .03523 .35648 24.562 4.86)" gradientUnits="userSpaceOnUse" id="k" xlink:href="#d"/><linearGradient y2="48.764" x2="69.634" y1="51.748" x1="35.781" gradientTransform="matrix(-.37246 .01425 0 .33276 24.483 26.326)" gradientUnits="userSpaceOnUse" id="j" xlink:href="#i"/></defs><path d="M23.594 44.947c-.46.442-1.056 1.039-1.66.901-3.09.239-16.767.166-19.486-.01-1.826-.725-.839-1.28-.365-1.63.51-.38 18.52-17.14 19.079-17.12.5-.021 1.536.155 2.535 1.101.526.45.285 15.73-.103 16.758z" font-size="12" opacity=".3" fill="url(#j)" fill-rule="evenodd" transform="translate(0 -24)"/><path d="M22.647 44.38c-.243.367-.576.6-.945.659-.83.373-17.543.234-18.916-.025-.793-.063-1.807-.021-2.001-1.424C.25 39.79.6 29.182.79 28.132c.251-.85.125-1.205 2.013-1.322 3.652-.426 16.755-.443 19.176.14.603.202.75.22.799.375.528.446.374 16.78-.132 17.055z" font-size="12" fill="url(#k)" fill-rule="evenodd" stroke="#261933" transform="translate(0 -24)"/><path d="M19.42 29.171c.478.119.405 13.157-.013 13.154-.44.198-15.856.326-16.255-.05-.373-.315-.427-12.765.204-12.916.487-.57 15.371-.608 16.065-.188z" font-size="12" fill="url(#l)" fill-rule="evenodd" stroke="#261933" stroke-width=".671" transform="translate(0 -24)"/><path d="M19.018 42.979c-5.314.024-13.078.177-15.252-.039-.586-.082-.457.009-.757-.53 3.18.4 15.628.282 16.4.09-.176.516-.087.175-.391.479z" font-size="12" opacity=".7" fill="url(#m)" fill-rule="evenodd" transform="translate(0 -24)"/><path d="M3.062 35.483c-.1-2.24 0-5.128.312-6.056.556-.579 8.847-.388 11.082-.513-4.15.314-9.012.256-10.463.798-.82.583-.831 1.757-.93 5.771z" font-size="12" opacity=".7" fill="url(#n)" transform="translate(0 -24)"/><path d="M7.135 11.485l2.606.015" fill="none" stroke="#fff" stroke-linecap="round"/><path d="M4.702 6.727l1.916 1.737-1.883 1.7" fill="none" stroke="#fff" stroke-linecap="round" stroke-linejoin="round"/><path d="M21.983 44.635c.504-1.738.541-15.954.182-17.47.517-.131-.538-.208.352.247.588.675.554 11.13.141 16.37-.638 1.699-.001.42-.675.853z" font-size="12" opacity=".7" fill="url(#o)" fill-rule="evenodd" transform="translate(0 -24)"/></svg>