<svg xmlns="http://www.w3.org/2000/svg" xmlns:xlink="http://www.w3.org/1999/xlink" height="24" width="24"><defs><linearGradient id="a"><stop offset="0" stop-opacity=".75"/><stop offset="1" stop-opacity=".087"/></linearGradient><radialGradient xlink:href="#a" id="b" cx="23.985" cy="31.636" fx="23.985" fy="31.636" r="20.266" gradientTransform="matrix(.52696 -.00308 .00111 .21966 -.69 36.633)" gradientUnits="userSpaceOnUse"/><filter id="c" x="-.024" width="1.048" y="-.071" height="1.143" color-interpolation-filters="sRGB"><feGaussianBlur stdDeviation=".18"/></filter></defs><path d="M18.28 41.955s-13.086.178-13.696.223c-.61.044-1.28.449-1.327 1.35 2.25 1.937 4.551 3.003 6.254 4 .515.432 2.872.693 4.216.22 2.21-.838 4.5-1.969 5.695-2.638.74-.488 1.516-.668 1.76-1.7-.4-1.37-1.868-1.37-2.902-1.455z" opacity=".824" fill="url(#b)" fill-rule="evenodd" filter="url(#c)" transform="translate(0 -24)"/><path d="M3.685 8.474l.748 9.343s0 .597.531.944c.532.348 5.293 3.336 5.77 3.535.479.199.266.125.901.166-.119-4.077.02-8.723-.063-11.037l-7.887-2.95z" fill="#6a94b8" fill-rule="evenodd"/><path d="M11.589 11.423l8.61-2.822c-.13 2.102-.526 7.118-.824 9.132-.245 1.032-.317 1.26-1.057 1.748-1.34.442-6.225 3.154-6.757 2.965l.028-11.023z" fill="#4a759c" fill-rule="evenodd"/><path d="M3.476 8.388c.186 1.62.644 7.711.697 8.865.08 1.03.267 1.283.806 1.63.54.348 5.067 3.14 5.552 3.339.486.199.838.445 1.539.146.701-.298 5.369-2.54 6.016-2.788.647-.249 1.22-.6 1.382-1.693.162-1.093.828-7.948.935-9.494-2.563.281-15.463-.198-16.927-.005z" fill="none" stroke="#3b3b48"/><path d="M2.495 6.035c-.014.575.068 1.103.154 1.725.068.255.15.565.718.869.967.6 5.414 2.985 6.87 3.419 1.055.433 1.676.386 2.566.19 1.32-.322 7.33-2.994 7.739-3.233.808-.362.722-.36.834-1.112.245-1.816.154-1.52-.415-2.03-1.365-.862-8.513-3.974-9.038-3.855-.526.12-9.823 3.394-9.428 4.027z" fill="#d5452c" fill-opacity=".988" fill-rule="evenodd" stroke="#501916"/><path d="M3.589 6.784C5.5 7.852 9.106 9.38 10.536 10.159 8.711 9.583 4.846 8.04 3.59 6.784z" fill="#fbf3f4" fill-opacity=".548" fill-rule="evenodd"/><path d="M5.814 7.095c.65-.255 5.007-2.188 6.495-2.625.987.307 4.46 2.026 5.875 2.674-.378.248-5.345 2.367-6.642 2.502-.909-.307-5.243-2.334-5.728-2.551z" fill="#6a94b8" fill-rule="evenodd"/><path d="M3.86 6.179s6.417 2.977 7.747 3.493c.64-.164 1.708-.56 2.092-.694l-1.506-6.11c-1.912.537-5.203 1.94-8.334 3.31zM11.626 10.452l-.013 1.656c1.46.346 6.968-2.525 9.49-3.536.128-.637.216-1.136.158-1.944-1.935.751-7.227 3.268-9.635 3.824z" fill-opacity=".275" fill-rule="evenodd"/><path d="M19.741 6.36c-1.912-1.068-5.683-2.534-7.114-3.314 1.826.576 5.856 2.057 7.114 3.313z" fill="#fbf3f4" fill-opacity=".549" fill-rule="evenodd"/></svg>