<svg xmlns="http://www.w3.org/2000/svg" xmlns:xlink="http://www.w3.org/1999/xlink" width="24" height="24" version="1"><defs><linearGradient id="b"><stop offset="0" stop-color="#fff"/><stop offset="1" stop-color="#fff" stop-opacity="0"/></linearGradient><linearGradient id="c"><stop offset="0" stop-color="#cc363d"/><stop offset="1" stop-color="#e3443c"/></linearGradient><linearGradient id="a"><stop offset="0" stop-color="#cdd1fb"/><stop offset="1" stop-color="#7974ec"/></linearGradient><radialGradient xlink:href="#a" id="d" gradientUnits="userSpaceOnUse" gradientTransform="matrix(1 0 0 1.12008 0 -1.682)" cx="35.495" cy="14.004" fx="35.495" fy="14.004" r="12.495"/><radialGradient xlink:href="#a" id="e" gradientUnits="userSpaceOnUse" gradientTransform="matrix(-1 0 0 -2.60072 70.99 22.826)" cx="35.495" cy="6.587" fx="35.495" fy="6.587" r="12.495"/><radialGradient xlink:href="#a" id="f" gradientUnits="userSpaceOnUse" gradientTransform="matrix(1 0 0 1.12008 0 -1.682)" cx="35.495" cy="14.004" fx="35.495" fy="14.004" r="12.495"/><radialGradient xlink:href="#a" id="g" gradientUnits="userSpaceOnUse" gradientTransform="matrix(1 0 0 1.12008 0 -1.682)" cx="35.495" cy="14.004" fx="35.495" fy="14.004" r="12.495"/><radialGradient xlink:href="#a" id="h" gradientUnits="userSpaceOnUse" gradientTransform="matrix(1 0 0 1.12008 0 -1.682)" cx="35.495" cy="14.004" fx="35.495" fy="14.004" r="12.495"/><radialGradient xlink:href="#a" id="i" gradientUnits="userSpaceOnUse" gradientTransform="matrix(1 0 0 1.12008 0 -1.682)" cx="35.495" cy="14.004" fx="35.495" fy="14.004" r="12.495"/><radialGradient xlink:href="#a" id="j" gradientUnits="userSpaceOnUse" gradientTransform="matrix(1 0 0 1.12008 0 -1.682)" cx="35.495" cy="14.004" fx="35.495" fy="14.004" r="12.495"/><radialGradient xlink:href="#a" id="k" gradientUnits="userSpaceOnUse" gradientTransform="matrix(1 0 0 1.12008 0 -1.682)" cx="35.495" cy="14.004" fx="35.495" fy="14.004" r="12.495"/><linearGradient xlink:href="#b" id="r" gradientUnits="userSpaceOnUse" gradientTransform="matrix(.22859 .03274 -.03438 .25988 9.494 31.986)" x1="31.591" y1="26.308" x2="46.987" y2="41.692"/><linearGradient xlink:href="#b" id="q" gradientUnits="userSpaceOnUse" gradientTransform="matrix(.24138 .03457 -.03256 .2461 9.513 31.902)" x1="11.885" y1="41.069" x2="16.236" y2="45.422"/><linearGradient xlink:href="#b" id="p" gradientUnits="userSpaceOnUse" gradientTransform="matrix(.2837 .08639 -.05736 .1959 10.435 30.576)" x1="33.976" y1="15.856" x2="38.279" y2="20.126"/><linearGradient xlink:href="#b" id="o" gradientUnits="userSpaceOnUse" gradientTransform="matrix(.17899 .02663 -.02803 .2201 10.946 32.435)" x1="29.236" y1="5.805" x2="35.311" y2="11.849"/><linearGradient xlink:href="#b" id="n" gradientUnits="userSpaceOnUse" gradientTransform="matrix(.24857 -.20389 .08149 .11095 8.386 35.647)" x1="7.728" y1="19.308" x2="10.213" y2="23.369"/><linearGradient xlink:href="#b" id="m" gradientUnits="userSpaceOnUse" gradientTransform="matrix(.28158 .033 -.02791 .1726 9.591 33.324)" x1="4.66" y1="32.07" x2="10.736" y2="37.985"/><linearGradient xlink:href="#c" id="l" gradientUnits="userSpaceOnUse" gradientTransform="matrix(.35837 .05133 -.0463 .34997 16.204 20.478)" x1="23.106" y1="69.479" x2="-4.555" y2="39.899"/></defs><g transform="matrix(.63948 0 0 .67157 -13.542 1.088)" fill="url(#d)" fill-rule="evenodd"><path d="M35.523.564c-.827-.01-1.567-.227-2.904.276-3.287.909-5.463 1.258-6.4 7.474-.992-.5-1.689-.93-2.62.876-.28 2.76.058 4.44.766 6.138.404.933.962 1.156 1.619 1.179.296 2.405.732 4.458.954 5.36.445 1.815 2.768 4.432 4.105 5.137 1.336.705 2.028.682 5.058-.224 3.03-.907 4.73-3.657 6.764-7.214.28-.844.558-1.968.839-3.06.772.197 1.455.13 2.11-.841 1.008-1.539 1.444-2.653 1.676-5.418-.578-2.084-1.152-3.57-3.006-2.198-1.24-4.849-3.285-5.892-6.1-7.008-1.228-.253-2.034-.467-2.86-.477z" fill="url(#e)" stroke="#20205d" stroke-width="1.526" stroke-linejoin="round" stroke-opacity=".976"/><path d="M33.443 10.987c.014.845-.827 1.544-1.876 1.561-1.05.018-1.913-.653-1.927-1.498-.014-.844.826-1.543 1.876-1.56 1.05-.018 1.913.653 1.927 1.497z" fill="url(#f)" stroke="#000" stroke-width="2.143" stroke-opacity=".588"/><path d="M30.24 11.922c-.125-1.19 2.908-1.15 2.614.048-.72.747-2.398.407-2.615-.048z" fill="url(#g)" stroke="#000" stroke-width="2.079" stroke-linejoin="round" stroke-opacity=".392"/><path d="M39.655 11.091c.014.844-.827 1.544-1.876 1.561-1.05.018-1.913-.653-1.927-1.498-.014-.844.826-1.543 1.876-1.56 1.05-.018 1.913.653 1.927 1.497z" fill="url(#h)" stroke="#000" stroke-width="2.143" stroke-opacity=".588"/><path d="M36.451 12.026c-.124-1.19 2.909-1.15 2.615.048-.72.746-2.398.407-2.615-.048z" fill="url(#i)" stroke="#000" stroke-width="2.079" stroke-linejoin="round" stroke-opacity=".392"/><path d="M30.5 21.229c2.1.734 4.344.697 6.516.098" fill="url(#j)" stroke="#000" stroke-width="2.143" stroke-linecap="round" stroke-opacity=".588"/><path d="M34.402 14.24l-1.383 4.157" fill="url(#k)" stroke="#000" stroke-width="2.143" stroke-linecap="round" stroke-opacity=".588"/></g><g fill-rule="evenodd"><path d="M22.893 18.053c-.2 1.774-1.587.348-2.538 1.547-.93 1.201 1.24 2.063-.126 3.112-1.41 1.11-1.359-1.116-2.726-1.053-1.522.099-.362 2.17-2.103 1.92-1.534-.254-.097-1.406-1.438-2.324-1.371-.958-1.914 1.017-2.932-.273-1.123-1.425 1.383-1.238.797-2.569-.58-1.347-2.327-.304-2.157-2.116.196-1.74 1.83-.103 2.584-1.369.734-1.257-1.167-2.172.104-2.942 1.438-.836 1.51 1.389 2.726 1.052 1.184-.309.27-2.526 2.02-2.344 1.882.235.253 1.86 1.356 2.69 1.088.8 2.183-1.007 3.065.052.911 1.098-.995 1.236-.818 2.462.181 1.324 2.28.401 2.186 2.155zm-3.825-.21c-.246 1.856-1.063 2.512-2.927 2.245-1.863-.267-2.783-1.216-2.537-3.072.18-1.668 1.446-2.547 3.114-2.308 1.864.267 2.595 1.279 2.35 3.135z" font-size="12" opacity=".303"/><path d="M14.482 19.339c1.214.453 2.621.732 3.791-.343.77-.684.944-2.957.447-4.083.544.727 1.18 3.63-.167 4.529-1.63 1.111-3.301.576-4.07-.103z" font-size="12" opacity=".7" stroke="#fff" stroke-width=".159"/><path d="M22.316 41.293c-.195 1.731-1.55.339-2.478 1.51-.907 1.173 1.211 2.014-.123 3.038-1.376 1.085-1.327-1.089-2.661-1.028-1.486.096-.354 2.118-2.054 1.875-1.497-.248-.094-1.373-1.403-2.27-1.339-.934-1.869.994-2.863-.266-1.096-1.391 1.35-1.208.778-2.507-.566-1.316-2.272-.298-2.105-2.067.19-1.698 1.785-.1 2.522-1.336.717-1.227-1.14-2.12.101-2.873 1.404-.816 1.474 1.357 2.662 1.028 1.156-.302.264-2.467 1.973-2.289 1.836.23.246 1.816 1.323 2.627 1.062.78 2.131-.984 2.992.05.89 1.072-.97 1.207-.799 2.404.177 1.293 2.227.392 2.135 2.104zm-3.735-.205c-.214 1.617-1.262 2.34-2.857 2.191-1.662-.238-2.736-1.348-2.477-3 .214-1.617 1.221-2.513 3.04-2.252 1.668.199 2.469 1.438 2.294 3.06z" font-size="12" fill="url(#l)" stroke="#4f181a" transform="translate(0 -24)"/><path d="M9.938 40.069c-.036-.057-.123-.657.09-.76.392-.19 1.693-.166 1.725-.117.03.047-1.109.195-1.542.404-.172.083-.248.512-.273.473z" font-size="12" opacity=".99" fill="url(#m)" transform="translate(0 -24)"/><path d="M12.09 36.155c-.034-.045.071-.229.228-.37.168-.152.477-.098.51-.053.028.038-.71.46-.738.423z" font-size="12" opacity=".99" fill="url(#n)" transform="translate(0 -24)"/><path d="M15.877 35.568c-.016-.066.079-.701.311-.912.189-.17.915-.007.93.053.013.058-.633.108-.845.3-.21.19-.384.61-.396.56z" font-size="12" opacity=".99" fill="url(#o)" transform="translate(0 -24)"/><path d="M18.942 37.4c.221-.138 1.334-.445 1.437-.414.071.022-.604.484-.915.574-.168.048-.605-.107-.522-.16z" font-size="12" opacity=".99" fill="url(#p)" transform="translate(0 -24)"/><path d="M10.904 43.486c.07-.132.986-.85 1.176-.915.092-.03-.153.493-.33.63-.215.168-.886.363-.846.285z" font-size="12" opacity=".99" fill="url(#q)" transform="translate(0 -24)"/><path d="M15.291 43.8c-.07-.121 1.96.287 2.899-.816 1.116-1.29.88-2.762.948-2.645.083.143.076 2.441-.603 3.052-.603.542-3.163.548-3.244.409z" fill="url(#r)" transform="translate(0 -24)"/></g></svg>