<svg xmlns="http://www.w3.org/2000/svg" xmlns:xlink="http://www.w3.org/1999/xlink" height="20" width="20"><defs><linearGradient id="a"><stop offset="0" stop-color="#aa602f"/><stop offset="1" stop-color="#784421"/></linearGradient><linearGradient id="b"><stop offset="0" stop-color="#fff"/><stop offset=".874" stop-color="#f5f5f5"/><stop offset="1" stop-color="#c8c8c8"/></linearGradient><radialGradient r="30.219" fy="16.896" fx="23.067" cy="17.065" cx="22.981" gradientTransform="matrix(.2477 .0049 0 .24752 2.499 30.572)" gradientUnits="userSpaceOnUse" id="e" xlink:href="#a"/><radialGradient xlink:href="#b" id="d" cx="1646.682" cy="-3.524" fx="1646.682" fy="-3.524" r="24.09" gradientTransform="matrix(.3597 .00637 -.00399 .22107 -582.269 25.815)" gradientUnits="userSpaceOnUse"/><filter id="f" x="-.236" width="1.472" y="-.27" height="1.54" color-interpolation-filters="sRGB"><feGaussianBlur stdDeviation=".189"/></filter><filter id="c" x="-.027" width="1.055" y="-.052" height="1.104" color-interpolation-filters="sRGB"><feGaussianBlur stdDeviation=".195"/></filter></defs><path d="M10.03 42.156c-4.693-.005-8.696-3.755-8.407-4.5-.302-.751 3.681-4.485 8.374-4.5 4.694-.015 8.866 3.514 8.584 4.4.229.765-3.858 4.606-8.551 4.6z" transform="matrix(1.07009 0 -.08234 1.11555 2.283 -32.039)" opacity=".907" fill="none" stroke="#824924" stroke-width=".915" stroke-linejoin="round" filter="url(#c)"/><path d="M9.936 42.5C5.243 42.494 1.24 38.745 1.53 38c-.302-.752 3.682-4.485 8.375-4.5 4.693-.015 8.866 3.514 8.583 4.4.23.765-3.858 4.606-8.55 4.6z" opacity=".907" fill="url(#d)" stroke="#824924" stroke-linejoin="round" transform="translate(0 -28)"/><path d="M13.865 39.244c-.567 2.093-2.747 3.238-4.878 2.561-2.13-.676-3.409-2.92-2.86-5.019.55-2.098 2.72-3.261 4.855-2.601 2.135.66 3.43 2.894 2.899 4.998" fill="url(#e)" transform="translate(0 -28)"/><path d="M11.425 10.453c-.212.773-1.02 1.2-1.805.954-.786-.246-1.254-1.072-1.048-1.848.206-.776 1.01-1.21 1.797-.97.787.24 1.262 1.063 1.062 1.841" fill="#0e0b0b" stroke="#000" stroke-width=".047" stroke-linecap="round" stroke-linejoin="round"/><path d="M-9.208 35.976a1 .79 0 0 1-1.4.117 1 .79 0 0 1-.16-1.107 1 .79 0 0 1 1.398-.134 1 .79 0 0 1 .181 1.104" transform="matrix(.88012 -.47474 .48512 .87445 0 -28)" opacity=".734" fill="#fff" filter="url(#f)"/></svg>