<svg xmlns="http://www.w3.org/2000/svg" xmlns:xlink="http://www.w3.org/1999/xlink" height="20" width="20"><defs><linearGradient id="c"><stop offset="0" stop-color="#fff"/><stop offset=".874" stop-color="#f5f5f5"/><stop offset="1" stop-color="#c8c8c8"/></linearGradient><linearGradient id="b"><stop offset="0" stop-color="#fff"/><stop offset="1" stop-color="#fff" stop-opacity=".237"/></linearGradient><linearGradient id="a"><stop offset="0" stop-color="#96b5d0"/><stop offset="1" stop-color="#6e6bd0"/></linearGradient><radialGradient r="30.219" fy="16.896" fx="23.067" cy="17.065" cx="22.981" gradientTransform="matrix(.27883 .00551 0 .27846 1.556 29.644)" gradientUnits="userSpaceOnUse" id="e" xlink:href="#a"/><radialGradient xlink:href="#c" id="d" cx="1646.682" cy="-3.524" fx="1646.682" fy="-3.524" r="24.09" gradientTransform="matrix(.35769 .00707 -.00396 .24553 -578.894 24.468)" gradientUnits="userSpaceOnUse"/><filter id="f" x="-.236" width="1.472" y="-.27" height="1.54" color-interpolation-filters="sRGB"><feGaussianBlur stdDeviation=".189"/></filter></defs><path d="M9.98 43c-4.668-.006-8.743-4.161-8.457-4.988-.3-.835 3.757-4.991 8.424-5.008 4.667-.016 8.816 3.903 8.535 4.887.228.85-3.836 5.115-8.503 5.109z" opacity=".907" fill="url(#d)" stroke="#000" stroke-linejoin="round" transform="translate(0 -28)"/><path d="M14.35 39.4c-.637 2.354-3.092 3.642-5.49 2.881-2.398-.761-3.838-3.285-3.22-5.646.619-2.361 3.062-3.67 5.465-2.927 2.404.742 3.862 3.256 3.263 5.623" fill="url(#e)" transform="translate(0 -28)"/><path d="M11.577 10.5c-.235.856-1.128 1.328-1.997 1.055-.87-.272-1.388-1.185-1.16-2.043.228-.858 1.117-1.337 1.988-1.071.87.265 1.396 1.175 1.175 2.034" fill="#0e0b0b" stroke="#000" stroke-width=".047" stroke-linecap="round" stroke-linejoin="round"/><path d="M-9.208 35.976a1 .79 0 0 1-1.4.117 1 .79 0 0 1-.16-1.107 1 .79 0 0 1 1.398-.134 1 .79 0 0 1 .181 1.104" transform="matrix(.88012 -.47474 .48512 .87445 0 -28)" opacity=".734" fill="#fff" filter="url(#f)"/></svg>